<svg id="svg" version="1.1" xmlns="http://www.w3.org/2000/svg" xmlns:xlink="http://www.w3.org/1999/xlink" width="400" height="400" viewBox="0, 0, 400,400"><g id="svgg"><path id="path0" d="M22.200 165.912 C 15.966 167.976,13.625 174.733,13.608 190.716 C 13.585 211.642,16.549 219.332,24.649 219.366 C 33.192 219.401,36.147 212.623,35.097 195.400 C 34.955 193.067,36.475 192.839,37.251 195.077 C 38.249 197.955,37.927 207.248,36.701 210.943 C 35.581 214.317,35.607 214.708,37.080 216.700 C 39.941 220.570,46.355 220.290,50.003 216.136 C 53.129 212.576,54.486 207.754,54.468 200.277 C 54.456 195.712,54.559 194.714,55.058 194.522 C 57.667 193.521,57.664 205.959,55.053 212.149 C 52.472 218.268,62.971 222.193,68.128 217.036 C 72.053 213.111,73.600 205.644,73.599 190.635 C 73.598 171.746,70.244 165.200,60.568 165.200 C 54.150 165.200,43.477 173.457,45.188 177.098 C 47.220 181.423,48.365 189.732,47.001 190.255 C 45.901 190.677,45.346 189.543,45.071 186.304 C 43.916 172.696,32.487 162.506,22.200 165.912 M160.706 165.576 C 154.542 167.560,153.418 174.378,158.738 177.506 C 163.004 180.013,171.213 178.626,173.068 175.084 C 176.231 169.044,168.472 163.075,160.706 165.576 M232.600 165.737 C 220.199 169.836,211.806 193.791,216.810 210.803 C 220.699 224.021,235.238 221.987,235.412 208.200 C 235.476 203.220,235.722 202.304,236.951 202.479 C 237.742 202.592,237.802 202.846,237.830 206.200 C 237.899 214.641,241.515 219.302,248.001 219.313 C 255.238 219.325,258.412 213.630,258.392 200.665 C 258.359 178.216,245.897 161.341,232.600 165.737 M87.770 182.349 C 77.156 185.971,72.967 199.023,78.711 210.580 C 85.268 223.775,106.782 222.338,111.338 208.400 C 115.423 195.901,111.186 185.307,100.847 182.169 C 98.158 181.353,90.375 181.460,87.770 182.349 M120.600 182.169 C 110.793 186.559,115.294 212.279,126.854 217.907 C 136.780 222.741,146.931 216.980,150.983 204.214 C 155.606 189.647,150.047 178.284,140.126 182.025 C 134.544 184.129,131.712 195.694,134.389 205.452 C 135.249 208.587,135.143 209.176,133.714 209.194 C 132.361 209.211,131.196 203.749,131.214 197.475 C 131.227 193.180,131.471 191.367,132.574 187.400 C 133.588 183.751,125.226 180.098,120.600 182.169 M160.885 182.184 C 156.882 184.393,155.200 189.371,155.202 199.000 C 155.205 215.010,160.707 223.081,168.485 218.486 C 174.723 214.801,176.134 189.983,170.454 183.864 C 168.396 181.647,163.436 180.776,160.885 182.184 M188.387 182.197 C 173.821 186.198,171.708 210.163,185.312 217.057 C 192.013 220.453,204.322 220.172,209.144 216.512 C 211.670 214.596,212.761 210.232,211.382 207.566 L 210.764 206.371 209.600 207.200 C 204.605 210.757,196.157 210.745,191.229 207.175 C 189.539 205.951,189.083 204.573,190.223 204.136 C 190.581 203.999,191.558 204.405,192.523 205.092 C 199.555 210.100,209.918 207.159,212.190 199.510 C 215.681 187.754,202.654 178.279,188.387 182.197 M266.600 182.518 C 262.569 184.798,260.791 192.971,260.808 209.142 C 260.828 228.423,264.893 237.421,272.781 235.649 C 277.485 234.592,279.452 230.842,279.887 222.100 C 280.011 219.625,280.166 217.600,280.233 217.600 C 280.300 217.600,281.037 218.003,281.871 218.495 C 284.190 219.863,288.634 219.767,291.667 218.283 C 303.423 212.531,303.173 186.839,291.317 182.403 C 284.364 179.802,278.602 182.315,276.434 188.894 C 275.861 190.634,275.488 190.945,274.396 190.599 C 273.327 190.260,273.388 189.650,274.801 186.534 C 275.749 184.444,275.903 183.765,275.530 183.316 C 273.939 181.399,269.310 180.985,266.600 182.518 M308.761 182.453 C 304.402 184.981,303.068 190.969,303.028 208.200 C 302.982 227.570,305.295 234.478,312.266 235.786 C 318.236 236.906,323.085 228.721,321.794 219.700 C 321.520 217.784,321.964 217.547,323.925 218.561 C 335.599 224.598,346.014 207.728,340.967 190.958 C 337.495 179.421,322.665 177.818,318.597 188.539 C 317.782 190.688,317.045 191.216,316.133 190.304 C 315.593 189.764,315.643 189.425,316.594 187.150 C 318.016 183.747,318.011 183.603,316.441 182.529 C 314.610 181.278,310.852 181.240,308.761 182.453 M237.274 184.009 C 237.042 187.329,237.105 192.189,237.401 193.731 C 237.688 195.228,237.670 195.259,236.585 195.131 C 234.404 194.873,233.587 187.393,235.312 183.469 C 236.295 181.233,237.447 181.550,237.274 184.009 M96.289 188.100 C 99.530 192.288,97.871 214.842,94.565 211.536 C 93.985 210.957,93.986 210.698,94.573 208.551 C 95.956 203.489,96.021 196.233,94.734 190.467 C 94.336 188.684,94.351 188.276,94.829 187.974 C 95.594 187.489,95.832 187.510,96.289 188.100 M197.136 190.619 C 198.376 193.341,197.429 200.200,195.813 200.200 C 195.103 200.200,194.498 190.435,195.167 189.767 C 195.664 189.269,196.731 189.731,197.136 190.619 M282.773 194.375 C 283.247 194.675,283.264 195.010,282.873 196.315 C 282.258 198.365,282.264 204.567,282.882 206.276 C 283.294 207.416,283.265 207.706,282.682 208.290 C 281.169 209.803,280.000 206.713,280.000 201.200 C 280.000 195.615,280.968 193.232,282.773 194.375 M325.039 194.558 C 325.157 194.865,325.044 195.893,324.789 196.843 C 324.533 197.792,324.305 199.791,324.282 201.285 C 324.234 204.396,322.329 205.625,321.916 202.811 C 321.270 198.410,323.875 191.525,325.039 194.558 " stroke="none" fill="#fbf1f1" fill-rule="evenodd"></path><path id="path1" d="M0.000 200.000 L 0.000 400.000 200.000 400.000 L 400.000 400.000 400.000 200.000 L 400.000 0.000 200.000 0.000 L 0.000 0.000 0.000 200.000 M30.629 165.060 C 38.458 167.682,45.044 177.032,45.870 186.700 C 46.099 189.381,46.424 190.132,46.971 189.247 C 47.407 188.541,46.345 182.300,45.230 179.022 L 44.087 175.661 45.401 173.710 C 53.275 162.017,68.263 161.512,72.376 172.800 C 75.687 181.885,74.868 206.366,70.998 214.004 C 67.430 221.044,59.841 222.347,55.043 216.742 C 53.368 214.784,53.350 214.663,54.372 212.070 C 56.458 206.778,57.174 195.461,55.415 195.578 C 55.184 195.594,55.072 197.568,55.136 200.502 C 55.390 212.125,50.400 220.168,42.969 220.118 C 37.069 220.078,34.187 216.153,36.046 210.687 C 37.522 206.347,37.586 196.315,36.149 194.545 C 35.604 193.872,35.577 194.091,35.873 196.800 C 36.769 205.015,35.834 211.736,33.285 215.388 C 28.606 222.095,19.720 221.747,16.158 214.717 C 12.455 207.410,11.675 182.660,14.841 172.931 C 16.972 166.383,24.046 162.856,30.629 165.060 M168.708 165.010 C 176.604 167.355,176.461 176.732,168.494 179.048 C 161.914 180.961,155.319 177.849,154.886 172.626 C 154.381 166.545,161.210 162.783,168.708 165.010 M243.294 165.892 C 255.270 171.496,262.933 196.564,257.585 212.645 C 253.351 225.373,237.568 221.450,237.341 207.612 C 237.301 205.185,237.100 203.367,236.864 203.288 C 236.267 203.089,235.862 206.490,236.164 209.161 C 237.001 216.561,229.162 222.321,222.354 219.309 C 209.314 213.541,214.034 175.350,228.860 166.661 C 233.256 164.084,238.801 163.789,243.294 165.892 M100.518 181.431 C 112.165 184.449,117.178 198.575,110.980 210.914 C 104.579 223.659,83.971 223.486,77.959 210.637 C 69.789 193.179,82.476 176.755,100.518 181.431 M128.603 181.546 C 132.339 183.243,133.605 185.906,132.565 189.880 C 131.273 194.823,131.780 205.653,133.409 207.880 C 134.328 209.137,134.471 208.164,133.724 205.743 C 131.004 196.937,133.850 184.511,139.209 181.795 C 148.611 177.031,155.560 186.812,152.622 200.674 C 146.791 228.186,117.982 226.087,114.791 197.918 C 113.367 185.348,119.908 177.596,128.603 181.546 M169.678 182.228 C 173.313 184.782,174.486 188.948,174.457 199.200 C 174.410 216.118,169.352 223.461,160.721 219.145 C 153.692 215.630,151.929 189.706,158.297 183.504 C 161.467 180.418,166.327 179.873,169.678 182.228 M200.800 181.361 C 211.259 183.891,216.248 193.025,211.982 201.837 C 208.955 208.090,199.263 210.185,192.680 206.010 C 190.012 204.318,189.122 204.929,191.703 206.681 C 196.479 209.923,204.358 210.020,208.933 206.893 C 213.085 204.055,214.243 212.271,210.250 216.241 C 205.647 220.818,192.711 221.599,185.123 217.760 C 172.596 211.421,172.318 189.110,184.689 182.999 C 189.040 180.849,195.832 180.159,200.800 181.361 M274.123 181.647 C 276.824 182.960,276.994 183.518,275.592 186.481 C 274.286 189.241,274.139 190.000,274.906 190.000 C 275.184 190.000,275.729 189.108,276.116 188.018 C 280.455 175.801,297.297 179.331,300.207 193.068 C 303.904 210.517,293.687 224.391,281.100 219.013 C 280.462 218.741,280.400 219.046,280.400 222.473 C 280.400 238.953,266.322 242.226,261.790 226.800 C 259.202 217.989,259.698 193.483,262.607 186.522 C 264.722 181.459,269.539 179.420,274.123 181.647 M315.481 181.276 C 318.515 182.568,318.892 183.663,317.404 186.860 C 316.285 189.265,316.168 190.000,316.906 190.000 C 317.184 190.000,317.720 189.133,318.096 188.073 C 322.217 176.471,337.718 178.744,341.871 191.560 C 342.718 194.175,343.039 203.369,342.393 206.510 C 340.326 216.551,331.782 222.649,324.251 219.457 C 323.399 219.095,322.656 218.800,322.600 218.800 C 322.544 218.800,322.413 220.915,322.308 223.500 C 321.932 232.750,318.850 236.835,312.634 236.319 C 304.420 235.638,301.018 223.913,302.361 200.908 C 303.314 184.577,307.727 177.975,315.481 181.276 M236.001 183.599 C 234.612 186.194,234.759 192.968,236.235 194.376 C 236.836 194.950,236.870 194.887,236.648 193.600 C 235.945 189.521,235.923 187.669,236.551 185.510 C 237.395 182.606,237.093 181.557,236.001 183.599 M95.336 189.700 C 96.615 197.017,96.644 203.583,95.420 208.000 C 94.372 211.777,95.093 212.798,96.195 209.100 C 97.732 203.945,97.811 195.276,96.371 189.900 C 95.871 188.033,95.016 187.868,95.336 189.700 M195.499 190.634 C 195.371 190.763,195.456 191.414,195.688 192.081 C 195.937 192.796,196.011 194.591,195.868 196.447 C 195.626 199.582,196.082 200.739,196.677 198.500 C 197.556 195.194,196.694 189.439,195.499 190.634 M281.425 195.159 C 280.340 196.915,280.452 206.212,281.571 207.331 C 282.301 208.061,282.450 207.351,281.968 205.440 C 281.511 203.622,281.656 198.240,282.225 195.900 C 282.482 194.847,281.933 194.338,281.425 195.159 M323.263 196.100 C 322.686 197.977,322.301 201.858,322.599 202.796 C 323.109 204.404,323.505 203.530,323.729 200.300 C 323.855 198.485,324.078 196.505,324.225 195.900 C 324.609 194.326,323.753 194.504,323.263 196.100 " stroke="none" fill="#e40c14" fill-rule="evenodd"></path><path id="path2" d="M25.500 164.689 C 26.215 164.778,27.385 164.778,28.100 164.689 C 28.815 164.601,28.230 164.528,26.800 164.528 C 25.370 164.528,24.785 164.601,25.500 164.689 M59.507 164.690 C 60.226 164.779,61.306 164.777,61.907 164.686 C 62.508 164.595,61.920 164.522,60.600 164.524 C 59.280 164.526,58.788 164.601,59.507 164.690 M163.091 164.689 C 163.801 164.777,165.061 164.779,165.891 164.692 C 166.721 164.605,166.140 164.533,164.600 164.531 C 163.060 164.529,162.381 164.600,163.091 164.689 M235.900 164.689 C 236.615 164.778,237.785 164.778,238.500 164.689 C 239.215 164.601,238.630 164.528,237.200 164.528 C 235.770 164.528,235.185 164.601,235.900 164.689 M55.400 165.578 C 54.520 165.995,53.980 166.336,54.200 166.338 C 54.746 166.342,57.902 164.864,57.400 164.840 C 57.180 164.830,56.280 165.162,55.400 165.578 M159.300 165.396 C 158.585 165.707,158.000 166.051,158.000 166.160 C 158.000 166.270,158.585 166.122,159.300 165.832 C 160.015 165.541,160.870 165.205,161.200 165.084 C 161.733 164.888,161.733 164.861,161.200 164.847 C 160.870 164.838,160.015 165.086,159.300 165.396 M232.200 165.200 C 231.696 165.417,231.622 165.544,232.000 165.544 C 232.330 165.544,232.960 165.389,233.400 165.200 C 233.904 164.983,233.978 164.856,233.600 164.856 C 233.270 164.856,232.640 165.011,232.200 165.200 M240.600 165.200 C 241.040 165.389,241.670 165.544,242.000 165.544 C 242.378 165.544,242.304 165.417,241.800 165.200 C 241.360 165.011,240.730 164.856,240.400 164.856 C 240.022 164.856,240.096 164.983,240.600 165.200 M171.550 166.636 C 172.293 167.241,173.234 168.471,173.641 169.368 C 174.049 170.266,174.386 170.763,174.391 170.474 C 174.412 169.246,172.485 166.666,171.000 165.931 C 170.560 165.713,170.808 166.030,171.550 166.636 M229.500 166.229 C 227.949 167.070,228.125 167.361,229.700 166.559 C 231.208 165.793,231.475 165.594,230.967 165.616 C 230.765 165.625,230.105 165.901,229.500 166.229 M51.374 167.757 C 47.568 170.320,43.813 175.097,44.423 176.600 C 44.709 177.306,44.741 177.281,44.694 176.388 C 44.593 174.486,48.514 169.863,52.100 167.657 C 53.384 166.868,53.903 166.400,53.495 166.400 C 53.437 166.400,52.482 167.011,51.374 167.757 M69.182 168.200 C 70.147 169.300,71.020 170.290,71.122 170.400 C 71.225 170.510,71.119 170.240,70.887 169.800 C 70.655 169.360,69.782 168.370,68.947 167.600 C 67.503 166.269,67.515 166.299,69.182 168.200 M245.200 167.059 C 245.750 167.434,247.358 168.924,248.773 170.370 C 250.188 171.817,250.965 172.449,250.499 171.775 C 249.424 170.220,246.408 167.429,245.158 166.833 C 244.229 166.391,244.230 166.397,245.200 167.059 M226.322 168.404 C 225.518 169.066,224.290 170.371,223.593 171.304 L 222.324 173.000 223.708 171.446 C 224.469 170.591,225.791 169.292,226.646 168.561 C 228.586 166.899,228.309 166.766,226.322 168.404 M37.844 170.000 C 39.997 172.317,42.400 175.665,42.400 176.348 C 42.400 176.571,42.578 176.863,42.795 176.997 C 44.397 177.987,40.496 172.225,37.922 169.800 L 35.800 167.800 37.844 170.000 M16.147 170.008 C 15.562 170.893,15.154 171.684,15.241 171.766 C 15.329 171.848,15.888 171.125,16.485 170.158 C 17.843 167.956,17.582 167.840,16.147 170.008 M154.920 172.000 C 154.920 173.210,154.995 173.705,155.087 173.100 C 155.178 172.495,155.178 171.505,155.087 170.900 C 154.995 170.295,154.920 170.790,154.920 172.000 M173.690 174.503 C 173.040 176.299,171.740 177.468,169.355 178.399 C 168.280 178.819,167.631 179.171,167.913 179.181 C 170.292 179.268,174.877 175.231,174.315 173.545 C 174.241 173.324,173.960 173.755,173.690 174.503 M220.574 175.821 C 219.768 177.262,219.174 178.507,219.254 178.586 C 219.334 178.666,220.078 177.487,220.907 175.966 C 221.737 174.445,222.330 173.200,222.227 173.200 C 222.124 173.200,221.380 174.379,220.574 175.821 M72.828 175.233 C 72.844 175.765,73.019 176.560,73.219 177.000 C 73.471 177.558,73.507 177.315,73.338 176.200 C 73.055 174.343,72.787 173.836,72.828 175.233 M13.840 176.440 C 13.693 177.357,13.652 178.185,13.747 178.280 C 13.842 178.376,14.046 177.710,14.200 176.800 C 14.354 175.890,14.396 175.062,14.293 174.960 C 14.190 174.857,13.987 175.523,13.840 176.440 M73.896 182.800 C 74.012 185.330,74.173 187.475,74.253 187.567 C 74.513 187.861,74.331 182.673,74.003 180.400 C 73.792 178.939,73.756 179.746,73.896 182.800 M13.013 185.700 C 12.863 189.275,12.889 194.630,13.071 197.600 C 13.360 202.323,13.402 201.507,13.409 191.100 C 13.414 184.555,13.388 179.200,13.351 179.200 C 13.315 179.200,13.163 182.125,13.013 185.700 M163.500 179.489 C 164.215 179.578,165.385 179.578,166.100 179.489 C 166.815 179.401,166.230 179.328,164.800 179.328 C 163.370 179.328,162.785 179.401,163.500 179.489 M45.656 180.000 C 45.656 180.330,45.811 180.960,46.000 181.400 C 46.217 181.904,46.344 181.978,46.344 181.600 C 46.344 181.270,46.189 180.640,46.000 180.200 C 45.783 179.696,45.656 179.622,45.656 180.000 M89.600 181.220 C 88.926 181.449,89.251 181.484,90.600 181.328 C 91.700 181.201,92.675 181.031,92.767 180.949 C 93.082 180.668,90.599 180.880,89.600 181.220 M97.800 181.200 C 99.492 181.631,100.944 181.631,99.600 181.200 C 99.050 181.024,98.150 180.883,97.600 180.887 C 96.702 180.894,96.722 180.926,97.800 181.200 M121.400 181.219 C 120.842 181.471,121.085 181.507,122.200 181.338 C 123.080 181.204,123.875 181.028,123.967 180.947 C 124.310 180.644,122.168 180.871,121.400 181.219 M126.600 181.200 C 127.040 181.389,127.670 181.544,128.000 181.544 C 128.378 181.544,128.304 181.417,127.800 181.200 C 127.360 181.011,126.730 180.856,126.400 180.856 C 126.022 180.856,126.096 180.983,126.600 181.200 M140.400 181.218 C 139.962 181.515,140.124 181.552,141.000 181.356 C 142.471 181.027,142.790 180.798,141.767 180.806 C 141.345 180.809,140.730 180.995,140.400 181.218 M145.200 181.200 C 146.742 181.694,147.564 181.694,146.800 181.200 C 146.470 180.987,145.750 180.827,145.200 180.846 L 144.200 180.880 145.200 181.200 M161.800 181.200 C 160.781 181.638,161.832 181.638,163.200 181.200 C 164.004 180.943,164.043 180.877,163.400 180.868 C 162.960 180.862,162.240 181.011,161.800 181.200 M166.824 181.311 C 169.575 182.105,171.037 183.364,172.406 186.117 C 173.085 187.483,173.523 188.150,173.379 187.600 C 172.504 184.257,169.498 181.338,166.556 180.976 C 165.014 180.787,165.017 180.790,166.824 181.311 M191.505 181.083 C 192.002 181.179,192.722 181.175,193.105 181.075 C 193.487 180.975,193.080 180.896,192.200 180.901 C 191.320 180.905,191.007 180.987,191.505 181.083 M196.033 180.944 C 196.125 181.024,197.280 181.189,198.600 181.312 C 200.091 181.451,200.621 181.411,200.000 181.207 C 199.012 180.884,195.711 180.665,196.033 180.944 M267.600 181.218 C 267.162 181.515,267.324 181.552,268.200 181.356 C 269.671 181.027,269.990 180.798,268.967 180.806 C 268.545 180.809,267.930 180.995,267.600 181.218 M271.233 180.944 C 271.325 181.023,271.940 181.208,272.600 181.356 C 273.476 181.552,273.638 181.515,273.200 181.218 C 272.660 180.853,270.832 180.598,271.233 180.944 M281.700 181.396 C 280.985 181.707,280.400 182.071,280.400 182.204 C 280.400 182.338,280.606 182.320,280.858 182.164 C 281.109 182.009,282.054 181.650,282.958 181.368 C 283.861 181.085,284.240 180.849,283.800 180.842 C 283.360 180.836,282.415 181.086,281.700 181.396 M286.433 180.944 C 286.525 181.023,287.500 181.191,288.600 181.318 C 289.887 181.467,290.315 181.426,289.800 181.203 C 289.036 180.872,286.086 180.645,286.433 180.944 M309.800 181.200 C 309.296 181.417,309.222 181.544,309.600 181.544 C 309.930 181.544,310.560 181.389,311.000 181.200 C 311.504 180.983,311.578 180.856,311.200 180.856 C 310.870 180.856,310.240 181.011,309.800 181.200 M313.233 180.944 C 313.325 181.023,313.940 181.208,314.600 181.356 C 315.476 181.552,315.638 181.515,315.200 181.218 C 314.660 180.853,312.832 180.598,313.233 180.944 M323.700 181.396 C 322.985 181.707,322.400 182.071,322.400 182.204 C 322.400 182.338,322.606 182.320,322.858 182.164 C 323.109 182.009,324.054 181.650,324.958 181.368 C 325.861 181.085,326.240 180.849,325.800 180.842 C 325.360 180.836,324.415 181.086,323.700 181.396 M328.900 181.076 C 329.285 181.176,329.915 181.176,330.300 181.076 C 330.685 180.975,330.370 180.893,329.600 180.893 C 328.830 180.893,328.515 180.975,328.900 181.076 M44.880 182.200 C 44.880 182.640,45.024 183.450,45.200 184.000 C 45.454 184.792,45.520 184.833,45.520 184.200 C 45.520 183.760,45.376 182.950,45.200 182.400 C 44.946 181.608,44.880 181.567,44.880 182.200 M85.242 182.612 C 84.055 183.165,83.196 183.729,83.332 183.866 C 83.469 184.002,83.845 183.895,84.167 183.627 C 84.490 183.359,85.619 182.802,86.677 182.389 C 87.735 181.976,88.330 181.631,88.000 181.623 C 87.670 181.614,86.429 182.060,85.242 182.612 M101.400 182.000 C 101.840 182.189,102.470 182.344,102.800 182.344 C 103.178 182.344,103.104 182.217,102.600 182.000 C 102.160 181.811,101.530 181.656,101.200 181.656 C 100.822 181.656,100.896 181.783,101.400 182.000 M118.492 182.640 C 117.773 183.207,116.907 184.240,116.568 184.935 L 115.952 186.200 116.767 185.200 C 117.215 184.650,117.586 184.071,117.591 183.914 C 117.596 183.757,118.272 183.172,119.093 182.614 C 119.914 182.056,120.409 181.602,120.193 181.604 C 119.977 181.607,119.211 182.073,118.492 182.640 M129.693 182.441 C 130.295 182.890,131.254 183.829,131.826 184.528 C 132.397 185.228,132.677 185.420,132.448 184.955 C 132.008 184.063,129.373 181.591,128.886 181.613 C 128.729 181.620,129.092 181.992,129.693 182.441 M138.175 182.350 C 137.056 183.032,134.400 186.595,134.400 187.413 C 134.400 187.602,134.914 186.946,135.543 185.955 C 136.171 184.963,137.382 183.578,138.234 182.876 C 139.987 181.431,139.968 181.257,138.175 182.350 M148.701 182.447 C 149.417 182.905,150.450 184.027,150.997 184.940 C 151.545 185.853,151.994 186.441,151.996 186.247 C 152.009 185.052,148.827 181.585,147.738 181.607 C 147.552 181.610,147.986 181.988,148.701 182.447 M265.287 182.700 C 264.330 183.635,264.314 183.681,265.181 183.006 C 266.888 181.676,266.969 181.600,266.686 181.600 C 266.536 181.600,265.906 182.095,265.287 182.700 M275.150 182.688 L 276.500 183.829 275.450 185.901 C 274.873 187.041,274.400 188.204,274.400 188.487 C 274.400 188.769,274.937 187.867,275.592 186.481 C 276.912 183.692,276.770 182.870,274.822 182.002 C 273.961 181.618,274.013 181.726,275.150 182.688 M292.675 182.633 C 294.616 183.573,296.018 184.847,297.709 187.209 L 298.418 188.200 297.835 186.970 C 297.103 185.426,294.337 182.900,292.569 182.161 C 290.371 181.243,290.440 181.552,292.675 182.633 M307.483 182.407 C 306.471 183.202,304.800 185.581,304.800 186.226 C 304.800 186.408,305.309 185.754,305.931 184.773 C 306.554 183.792,307.499 182.686,308.031 182.315 C 308.564 181.945,308.889 181.633,308.754 181.621 C 308.619 181.609,308.046 181.963,307.483 182.407 M316.000 181.725 C 316.000 181.793,316.585 182.272,317.300 182.788 L 318.600 183.727 317.630 182.663 C 316.802 181.755,316.000 181.293,316.000 181.725 M334.600 182.620 C 335.700 183.169,337.393 184.470,338.363 185.510 C 339.332 186.549,339.926 187.024,339.684 186.566 C 339.025 185.320,336.098 182.800,334.569 182.161 C 332.409 181.259,332.428 181.535,334.600 182.620 M103.600 182.579 C 103.600 182.689,104.140 183.059,104.800 183.400 C 105.460 183.741,106.000 183.931,106.000 183.821 C 106.000 183.711,105.460 183.341,104.800 183.000 C 104.140 182.659,103.600 182.469,103.600 182.579 M184.194 183.240 C 182.389 184.191,180.333 186.027,179.087 187.800 C 178.623 188.460,179.314 187.911,180.622 186.580 C 181.930 185.249,183.675 183.846,184.500 183.461 C 185.325 183.077,186.000 182.681,186.000 182.581 C 186.000 182.304,185.904 182.339,184.194 183.240 M204.033 182.549 C 204.445 182.917,206.800 184.000,206.800 183.821 C 206.800 183.590,204.582 182.400,204.153 182.400 C 203.996 182.400,203.942 182.467,204.033 182.549 M235.664 183.419 C 235.409 183.979,235.207 184.654,235.216 184.919 C 235.224 185.183,235.486 184.815,235.796 184.100 C 236.499 182.484,237.391 182.340,237.038 183.900 C 236.830 184.818,236.862 184.880,237.228 184.276 C 237.469 183.877,237.568 183.292,237.446 182.976 C 237.099 182.071,236.173 182.301,235.664 183.419 M278.923 183.300 C 278.141 184.161,276.390 186.815,276.877 186.400 C 277.260 186.074,280.006 182.400,279.867 182.400 C 279.797 182.400,279.372 182.805,278.923 183.300 M320.441 183.814 C 319.759 184.592,319.200 185.348,319.200 185.494 C 319.200 185.640,319.336 185.589,319.503 185.380 C 319.670 185.171,320.333 184.415,320.978 183.700 C 321.622 182.985,322.045 182.400,321.916 182.400 C 321.788 182.400,321.124 183.036,320.441 183.814 M46.693 185.000 C 46.813 186.320,46.976 187.475,47.055 187.567 C 47.351 187.907,47.131 184.170,46.810 183.400 C 46.608 182.917,46.562 183.551,46.693 185.000 M256.056 183.200 C 256.056 183.530,256.211 184.160,256.400 184.600 C 256.617 185.104,256.744 185.178,256.744 184.800 C 256.744 184.470,256.589 183.840,256.400 183.400 C 256.183 182.896,256.056 182.822,256.056 183.200 M217.050 184.450 C 216.717 186.117,217.040 186.440,217.400 184.800 C 217.552 184.109,217.593 183.459,217.491 183.358 C 217.389 183.256,217.191 183.747,217.050 184.450 M157.513 184.300 C 156.785 185.135,155.881 186.818,156.068 186.992 C 156.140 187.060,156.688 186.325,157.285 185.358 C 158.437 183.490,158.509 183.159,157.513 184.300 M81.375 185.300 L 80.200 186.600 81.500 185.425 C 82.712 184.330,82.984 184.000,82.675 184.000 C 82.606 184.000,82.021 184.585,81.375 185.300 M108.362 186.204 C 109.551 187.522,110.769 189.185,111.067 189.900 C 111.696 191.404,112.163 191.682,111.608 190.221 C 111.047 188.747,109.096 186.194,107.563 184.932 C 106.645 184.174,106.905 184.589,108.362 186.204 M208.053 184.867 C 208.631 185.380,209.593 186.340,210.189 187.000 L 211.273 188.200 210.421 186.916 C 209.952 186.210,208.990 185.250,208.284 184.783 L 207.000 183.934 208.053 184.867 M262.981 185.637 C 262.629 186.318,262.412 186.945,262.499 187.032 C 262.586 187.119,262.956 186.562,263.322 185.795 C 264.144 184.070,263.859 183.938,262.981 185.637 M317.381 186.037 C 317.029 186.718,316.812 187.345,316.899 187.432 C 316.986 187.519,317.356 186.962,317.722 186.195 C 318.544 184.470,318.259 184.338,317.381 186.037 M236.253 186.436 C 236.114 187.131,236.024 188.533,236.054 189.550 C 236.097 191.009,236.175 190.766,236.422 188.401 C 236.753 185.231,236.675 184.325,236.253 186.436 M45.762 187.596 C 45.792 189.352,45.940 189.819,46.500 189.926 C 46.885 189.999,47.200 189.871,47.200 189.642 C 47.200 189.413,46.940 189.325,46.622 189.447 C 46.173 189.619,46.008 189.191,45.884 187.534 L 45.724 185.400 45.762 187.596 M256.806 186.233 C 256.809 186.655,256.995 187.270,257.218 187.600 C 257.515 188.038,257.552 187.876,257.356 187.000 C 257.027 185.529,256.798 185.210,256.806 186.233 M132.893 187.200 C 132.893 187.970,132.975 188.285,133.076 187.900 C 133.176 187.515,133.176 186.885,133.076 186.500 C 132.975 186.115,132.893 186.430,132.893 187.200 M234.624 187.700 C 234.500 188.635,234.546 190.030,234.726 190.800 C 234.985 191.908,235.050 191.554,235.036 189.100 C 235.016 185.560,234.941 185.305,234.624 187.700 M115.429 187.429 C 115.281 188.015,115.238 188.572,115.332 188.666 C 115.427 188.760,115.624 188.358,115.771 187.771 C 115.919 187.185,115.962 186.628,115.868 186.534 C 115.773 186.440,115.576 186.842,115.429 187.429 M216.446 186.867 C 216.421 187.234,216.296 187.864,216.170 188.267 C 215.952 188.962,215.963 188.963,216.397 188.287 C 216.648 187.896,216.773 187.266,216.673 186.887 C 216.511 186.268,216.488 186.266,216.446 186.867 M78.893 187.900 C 77.857 189.396,77.521 190.000,77.723 190.000 C 77.817 190.000,78.370 189.280,78.953 188.400 C 80.136 186.612,80.084 186.179,78.893 187.900 M152.056 187.200 C 152.056 187.530,152.211 188.160,152.400 188.600 C 152.617 189.104,152.744 189.178,152.744 188.800 C 152.744 188.470,152.589 187.840,152.400 187.400 C 152.183 186.896,152.056 186.822,152.056 187.200 M155.400 188.800 C 155.248 189.491,155.207 190.141,155.309 190.242 C 155.411 190.344,155.609 189.853,155.750 189.150 C 156.083 187.483,155.760 187.160,155.400 188.800 M261.829 188.629 C 261.681 189.215,261.638 189.772,261.732 189.866 C 261.827 189.960,262.024 189.558,262.171 188.971 C 262.319 188.385,262.362 187.828,262.268 187.734 C 262.173 187.640,261.976 188.042,261.829 188.629 M94.950 188.587 C 94.826 188.910,94.817 189.405,94.931 189.687 C 95.044 189.969,95.151 189.795,95.168 189.300 C 95.215 187.969,95.922 188.208,96.352 189.700 C 96.559 190.415,96.744 190.673,96.764 190.274 C 96.846 188.628,95.437 187.318,94.950 188.587 M316.201 188.796 C 315.883 189.798,316.248 190.414,317.124 190.354 C 317.699 190.314,317.690 190.279,317.066 190.118 C 316.514 189.975,316.392 189.688,316.573 188.964 C 316.864 187.805,316.559 187.668,316.201 188.796 M211.878 189.795 C 212.244 190.562,212.614 191.119,212.701 191.032 C 212.884 190.849,211.670 188.400,211.396 188.400 C 211.295 188.400,211.512 189.028,211.878 189.795 M257.687 189.200 C 257.683 189.750,257.824 190.650,258.000 191.200 C 258.431 192.544,258.431 191.092,258.000 189.400 C 257.726 188.322,257.694 188.302,257.687 189.200 M132.249 189.415 C 132.112 189.773,132.018 190.456,132.041 190.933 C 132.067 191.481,132.203 191.286,132.410 190.403 C 132.760 188.916,132.665 188.333,132.249 189.415 M173.669 189.600 C 173.656 190.150,173.795 191.320,173.977 192.200 C 174.189 193.226,174.316 193.441,174.331 192.800 C 174.344 192.250,174.205 191.080,174.023 190.200 C 173.811 189.174,173.684 188.959,173.669 189.600 M275.632 189.300 C 275.595 190.101,274.568 190.251,274.265 189.500 C 274.107 189.108,274.056 189.111,274.032 189.513 C 273.989 190.203,275.150 190.610,275.672 190.088 C 275.902 189.858,275.994 189.429,275.877 189.135 C 275.732 188.773,275.653 188.827,275.632 189.300 M114.677 192.100 C 114.549 193.695,114.577 196.170,114.740 197.600 C 114.983 199.733,115.039 199.213,115.052 194.700 C 115.070 188.442,115.007 188.003,114.677 192.100 M303.450 190.450 C 303.117 192.117,303.440 192.440,303.800 190.800 C 303.952 190.109,303.993 189.459,303.891 189.358 C 303.789 189.256,303.591 189.747,303.450 190.450 M215.660 190.450 C 215.627 191.028,215.511 192.108,215.401 192.850 L 215.203 194.200 215.624 192.857 C 215.855 192.119,215.972 191.039,215.882 190.457 L 215.720 189.400 215.660 190.450 M152.951 194.400 C 152.951 196.930,153.016 197.965,153.096 196.700 C 153.175 195.435,153.175 193.365,153.096 192.100 C 153.016 190.835,152.951 191.870,152.951 194.400 M195.200 190.394 C 195.200 190.643,195.400 190.724,195.645 190.572 C 195.889 190.421,196.263 190.546,196.475 190.849 C 196.792 191.302,196.832 191.293,196.697 190.800 C 196.504 190.090,195.200 189.737,195.200 190.394 M299.256 190.400 C 299.256 190.730,299.411 191.360,299.600 191.800 C 299.817 192.304,299.944 192.378,299.944 192.000 C 299.944 191.670,299.789 191.040,299.600 190.600 C 299.383 190.096,299.256 190.022,299.256 190.400 M95.280 191.000 C 95.280 191.440,95.424 192.250,95.600 192.800 C 95.854 193.592,95.920 193.633,95.920 193.000 C 95.920 192.560,95.776 191.750,95.600 191.200 C 95.346 190.408,95.280 190.367,95.280 191.000 M133.033 192.433 C 132.883 193.566,132.841 194.574,132.939 194.672 C 133.037 194.771,133.245 193.928,133.400 192.800 C 133.555 191.672,133.598 190.664,133.494 190.561 C 133.391 190.458,133.184 191.300,133.033 192.433 M154.612 194.900 C 154.466 197.155,154.500 200.980,154.687 203.400 C 154.998 207.433,155.026 207.091,155.013 199.300 C 155.006 194.625,154.972 190.800,154.938 190.800 C 154.905 190.800,154.758 192.645,154.612 194.900 M261.000 192.800 C 260.845 193.928,260.802 194.936,260.906 195.039 C 261.009 195.142,261.216 194.300,261.367 193.167 C 261.517 192.034,261.559 191.026,261.461 190.928 C 261.363 190.829,261.155 191.672,261.000 192.800 M195.473 192.800 C 195.604 193.790,195.776 194.675,195.856 194.767 C 196.157 195.114,195.928 192.564,195.590 191.800 C 195.353 191.266,195.314 191.598,195.473 192.800 M97.094 194.000 C 97.214 195.430,97.377 196.675,97.456 196.767 C 97.735 197.089,97.516 193.388,97.198 192.400 C 97.005 191.800,96.963 192.440,97.094 194.000 M112.056 192.000 C 112.056 192.330,112.211 192.960,112.400 193.400 C 112.617 193.904,112.744 193.978,112.744 193.600 C 112.744 193.270,112.589 192.640,112.400 192.200 C 112.183 191.696,112.056 191.622,112.056 192.000 M196.972 195.000 C 196.968 198.119,197.014 198.366,197.317 196.848 C 197.516 195.856,197.518 194.295,197.322 193.248 C 197.015 191.611,196.975 191.810,196.972 195.000 M341.668 192.000 C 341.688 193.039,342.318 194.746,342.332 193.800 C 342.338 193.360,342.189 192.640,342.000 192.200 C 341.789 191.710,341.661 191.632,341.668 192.000 M212.870 192.600 C 212.857 193.040,212.995 194.120,213.177 195.000 C 213.455 196.345,213.508 196.409,213.507 195.400 C 213.505 193.999,212.908 191.370,212.870 192.600 M73.870 197.549 C 73.702 200.492,73.645 202.978,73.742 203.075 C 73.988 203.321,74.517 194.423,74.329 193.200 C 74.244 192.650,74.038 194.607,73.870 197.549 M76.250 193.650 C 75.917 195.317,76.240 195.640,76.600 194.000 C 76.752 193.309,76.793 192.659,76.691 192.558 C 76.589 192.456,76.391 192.947,76.250 193.650 M131.457 193.900 C 131.153 195.737,131.204 200.178,131.547 201.777 C 131.686 202.425,131.800 200.580,131.800 197.677 C 131.800 191.790,131.802 191.811,131.457 193.900 M176.250 194.050 C 175.917 195.717,176.240 196.040,176.600 194.400 C 176.752 193.709,176.793 193.059,176.691 192.958 C 176.589 192.856,176.391 193.347,176.250 194.050 M235.244 193.200 C 235.217 194.070,236.274 195.325,236.773 195.016 C 237.008 194.871,237.182 194.358,237.160 193.876 C 237.122 193.037,237.109 193.041,236.853 193.953 C 236.576 194.944,236.017 194.636,235.485 193.200 C 235.288 192.667,235.261 192.667,235.244 193.200 M258.600 200.800 C 258.600 205.323,258.717 208.014,258.860 206.800 C 259.200 203.936,259.202 197.144,258.865 194.600 C 258.719 193.500,258.600 196.290,258.600 200.800 M300.274 195.400 C 300.398 196.940,300.566 198.275,300.649 198.367 C 300.927 198.674,300.758 195.817,300.402 194.200 C 300.131 192.970,300.102 193.248,300.274 195.400 M302.600 196.400 C 302.441 198.405,302.398 200.131,302.503 200.236 C 302.608 200.342,302.823 198.786,302.980 196.780 C 303.137 194.774,303.181 193.047,303.077 192.944 C 302.973 192.840,302.759 194.395,302.600 196.400 M35.357 194.169 C 35.240 194.474,35.218 195.326,35.308 196.062 C 35.449 197.216,35.483 197.153,35.549 195.600 C 35.620 193.925,35.666 193.854,36.213 194.576 C 36.689 195.206,36.800 195.233,36.800 194.719 C 36.800 193.893,35.633 193.448,35.357 194.169 M112.988 199.600 C 112.982 204.579,113.009 204.775,113.327 202.112 C 113.519 200.514,113.522 198.102,113.334 196.712 C 113.040 194.534,112.994 194.919,112.988 199.600 M281.285 194.875 C 281.018 195.142,280.818 195.729,280.840 196.180 C 280.874 196.887,280.917 196.866,281.151 196.030 C 281.475 194.870,282.256 194.504,282.526 195.386 C 282.684 195.903,282.708 195.895,282.659 195.341 C 282.584 194.479,281.910 194.250,281.285 194.875 M322.980 195.787 C 322.661 196.550,322.427 197.855,322.460 198.687 C 322.511 199.982,322.540 200.027,322.663 199.000 C 322.741 198.340,322.992 197.125,323.219 196.300 C 323.735 194.427,324.604 194.258,324.251 196.100 C 324.073 197.024,324.115 197.227,324.394 196.800 C 324.611 196.470,324.791 195.795,324.794 195.300 C 324.803 193.901,323.637 194.215,322.980 195.787 M54.880 195.280 C 54.616 195.544,54.400 195.938,54.400 196.156 C 54.400 196.375,54.657 196.204,54.971 195.776 C 55.909 194.502,56.200 195.935,56.196 201.800 C 56.194 204.660,56.308 206.460,56.449 205.800 C 56.870 203.831,56.826 197.911,56.379 196.300 C 55.936 194.705,55.650 194.510,54.880 195.280 M96.150 199.400 C 96.151 201.820,96.216 202.758,96.296 201.485 C 96.376 200.212,96.375 198.232,96.294 197.085 C 96.214 195.938,96.149 196.980,96.150 199.400 M195.413 197.434 C 195.260 198.662,195.231 199.764,195.350 199.883 C 195.714 200.247,196.802 199.656,196.768 199.113 C 196.744 198.711,196.693 198.708,196.535 199.100 C 195.993 200.443,195.564 199.427,195.817 197.400 C 195.968 196.190,196.002 195.200,195.892 195.200 C 195.782 195.200,195.567 196.205,195.413 197.434 M214.955 200.200 C 214.956 203.060,215.020 204.178,215.097 202.683 C 215.174 201.189,215.174 198.849,215.096 197.483 C 215.018 196.118,214.955 197.340,214.955 200.200 M342.557 200.400 C 342.557 203.370,342.620 204.585,342.697 203.100 C 342.774 201.615,342.774 199.185,342.697 197.700 C 342.620 196.215,342.557 197.430,342.557 200.400 M75.746 199.400 C 75.747 201.600,75.814 202.449,75.895 201.287 C 75.976 200.124,75.976 198.324,75.893 197.287 C 75.811 196.249,75.745 197.200,75.746 199.400 M174.509 198.000 C 174.509 198.990,174.587 199.395,174.682 198.900 C 174.778 198.405,174.778 197.595,174.682 197.100 C 174.587 196.605,174.509 197.010,174.509 198.000 M175.746 200.200 C 175.747 202.400,175.814 203.249,175.895 202.087 C 175.976 200.924,175.976 199.124,175.893 198.087 C 175.811 197.049,175.745 198.000,175.746 200.200 M260.224 204.100 C 260.080 208.335,260.105 213.780,260.281 216.200 C 260.535 219.704,260.606 218.136,260.631 208.500 C 260.647 201.845,260.622 196.400,260.574 196.400 C 260.527 196.400,260.369 199.865,260.224 204.100 M281.853 197.636 C 281.714 198.331,281.621 199.373,281.647 199.950 C 281.672 200.528,281.855 200.027,282.052 198.839 C 282.437 196.521,282.273 195.534,281.853 197.636 M54.893 198.000 C 54.893 198.770,54.975 199.085,55.076 198.700 C 55.176 198.315,55.176 197.685,55.076 197.300 C 54.975 196.915,54.893 197.230,54.893 198.000 M212.893 198.000 C 212.893 198.770,212.975 199.085,213.076 198.700 C 213.176 198.315,213.176 197.685,213.076 197.300 C 212.975 196.915,212.893 197.230,212.893 198.000 M280.259 199.700 C 280.130 201.075,280.161 202.920,280.326 203.800 C 280.550 204.989,280.634 204.346,280.654 201.300 C 280.683 196.574,280.588 196.187,280.259 199.700 M37.284 201.450 C 37.238 203.678,37.111 206.107,37.001 206.850 L 36.803 208.200 37.215 206.891 C 37.442 206.170,37.569 203.740,37.498 201.491 L 37.369 197.400 37.284 201.450 M323.600 200.800 C 323.600 203.321,323.215 204.303,322.663 203.190 C 322.552 202.965,322.506 203.010,322.563 203.290 C 322.995 205.424,324.000 203.842,324.000 201.029 C 324.000 199.363,323.910 198.000,323.800 198.000 C 323.690 198.000,323.600 199.260,323.600 200.800 M152.256 200.484 C 152.121 200.988,152.027 201.760,152.046 202.200 C 152.065 202.640,152.245 202.298,152.446 201.440 C 152.836 199.778,152.670 198.940,152.256 200.484 M211.895 201.196 C 211.548 202.078,211.349 202.800,211.453 202.800 C 211.723 202.800,212.878 199.945,212.686 199.752 C 212.597 199.664,212.241 200.313,211.895 201.196 M36.137 203.000 C 36.139 204.760,36.209 205.430,36.293 204.489 C 36.378 203.549,36.377 202.109,36.291 201.289 C 36.205 200.470,36.136 201.240,36.137 203.000 M115.280 201.000 C 115.280 201.440,115.424 202.250,115.600 202.800 C 115.854 203.592,115.920 203.633,115.920 203.000 C 115.920 202.560,115.776 201.750,115.600 201.200 C 115.346 200.408,115.280 200.367,115.280 201.000 M133.072 202.200 C 133.199 203.300,133.369 204.275,133.451 204.367 C 133.732 204.682,133.520 202.199,133.180 201.200 C 132.951 200.526,132.916 200.851,133.072 202.200 M97.267 203.200 C 97.224 204.190,97.096 205.450,96.983 206.000 L 96.777 207.000 97.207 206.015 C 97.444 205.474,97.571 204.214,97.491 203.215 L 97.344 201.400 97.267 203.200 M281.640 203.233 C 281.662 203.985,281.830 205.050,282.013 205.600 C 282.229 206.246,282.266 205.820,282.119 204.400 C 281.859 201.883,281.581 201.207,281.640 203.233 M300.467 203.250 C 300.430 204.048,300.311 205.308,300.201 206.050 L 300.003 207.400 300.423 206.060 C 300.654 205.323,300.774 204.063,300.689 203.260 L 300.534 201.800 300.467 203.250 M236.150 203.387 C 236.026 203.710,236.017 204.205,236.131 204.487 C 236.244 204.769,236.351 204.576,236.368 204.057 C 236.391 203.390,236.575 203.182,237.000 203.345 C 237.330 203.471,237.600 203.401,237.600 203.187 C 237.600 202.573,236.399 202.738,236.150 203.387 M210.162 204.061 C 209.743 204.534,208.600 205.434,207.622 206.061 C 206.644 206.687,206.032 207.200,206.262 207.200 C 206.799 207.200,209.572 205.175,210.562 204.059 C 210.981 203.586,211.234 203.200,211.124 203.200 C 211.014 203.200,210.581 203.587,210.162 204.061 M54.633 205.633 C 54.483 206.766,54.441 207.774,54.539 207.872 C 54.637 207.971,54.845 207.128,55.000 206.000 C 55.155 204.872,55.198 203.864,55.094 203.761 C 54.991 203.658,54.784 204.500,54.633 205.633 M132.028 204.433 C 132.044 204.965,132.219 205.760,132.419 206.200 C 132.671 206.758,132.707 206.515,132.538 205.400 C 132.255 203.543,131.987 203.036,132.028 204.433 M76.080 204.600 C 76.080 205.040,76.224 205.850,76.400 206.400 C 76.654 207.192,76.720 207.233,76.720 206.600 C 76.720 206.160,76.576 205.350,76.400 204.800 C 76.146 204.008,76.080 203.967,76.080 204.600 M173.840 206.640 C 173.690 208.103,173.649 209.382,173.748 209.482 C 173.848 209.581,174.057 208.471,174.213 207.013 C 174.369 205.556,174.411 204.277,174.305 204.172 C 174.199 204.066,173.990 205.177,173.840 206.640 M13.695 205.200 C 13.695 205.750,13.832 206.740,14.000 207.400 C 14.272 208.470,14.305 208.492,14.305 207.600 C 14.305 207.050,14.168 206.060,14.000 205.400 C 13.728 204.330,13.695 204.308,13.695 205.200 M73.040 206.040 C 72.893 206.957,72.852 207.785,72.947 207.880 C 73.042 207.976,73.246 207.310,73.400 206.400 C 73.554 205.490,73.596 204.662,73.493 204.560 C 73.390 204.457,73.187 205.123,73.040 206.040 M190.125 205.051 C 189.775 205.963,193.695 208.808,195.284 208.796 C 195.568 208.794,194.900 208.354,193.800 207.818 C 191.442 206.670,190.400 205.884,190.400 205.256 C 190.400 204.616,190.697 204.681,192.138 205.637 L 193.400 206.473 192.278 205.437 C 190.977 204.235,190.473 204.145,190.125 205.051 M237.340 207.600 C 237.340 209.470,237.409 210.235,237.493 209.300 C 237.577 208.365,237.577 206.835,237.493 205.900 C 237.409 204.965,237.340 205.730,237.340 207.600 M302.154 209.200 C 302.154 211.950,302.218 213.075,302.296 211.700 C 302.374 210.325,302.374 208.075,302.296 206.700 C 302.218 205.325,302.154 206.450,302.154 209.200 M95.422 206.222 C 95.272 207.025,95.228 207.762,95.326 207.860 C 95.424 207.957,95.627 207.381,95.778 206.578 C 95.928 205.775,95.972 205.038,95.874 204.940 C 95.776 204.843,95.573 205.419,95.422 206.222 M176.068 205.200 C 176.088 206.239,176.718 207.946,176.732 207.000 C 176.738 206.560,176.589 205.840,176.400 205.400 C 176.189 204.910,176.061 204.832,176.068 205.200 M112.229 206.629 C 112.081 207.215,112.038 207.772,112.132 207.866 C 112.227 207.960,112.424 207.558,112.571 206.971 C 112.719 206.385,112.762 205.828,112.668 205.734 C 112.573 205.640,112.376 206.042,112.229 206.629 M149.559 208.619 C 148.767 210.244,148.267 211.482,148.447 211.371 C 148.848 211.123,151.324 205.991,151.135 205.801 C 151.060 205.726,150.350 206.994,149.559 208.619 M208.800 207.000 C 208.055 207.550,207.587 208.000,207.761 208.000 C 207.934 208.000,208.623 207.611,209.290 207.136 C 210.343 206.386,210.615 206.342,211.352 206.800 C 212.123 207.280,212.150 207.268,211.651 206.664 C 210.908 205.765,210.392 205.825,208.800 207.000 M280.825 206.420 C 280.795 207.166,281.562 208.000,282.280 208.000 C 282.566 208.000,282.786 207.685,282.768 207.300 C 282.750 206.882,282.656 206.801,282.535 207.100 C 282.222 207.876,281.611 207.691,281.212 206.700 C 280.991 206.148,280.841 206.040,280.825 206.420 M341.856 206.884 C 341.721 207.388,341.627 208.160,341.646 208.600 C 341.665 209.040,341.845 208.698,342.046 207.840 C 342.436 206.178,342.270 205.340,341.856 206.884 M194.408 206.939 C 194.963 207.264,196.133 207.633,197.008 207.760 L 198.600 207.991 196.800 207.443 C 195.810 207.141,194.640 206.772,194.200 206.622 C 193.702 206.452,193.780 206.572,194.408 206.939 M215.287 207.000 C 215.291 207.440,215.432 208.340,215.600 209.000 C 215.874 210.078,215.906 210.098,215.913 209.200 C 215.917 208.650,215.776 207.750,215.600 207.200 C 215.349 206.416,215.281 206.373,215.287 207.000 M35.440 208.840 C 35.293 209.757,35.252 210.585,35.347 210.680 C 35.442 210.776,35.646 210.110,35.800 209.200 C 35.954 208.290,35.996 207.462,35.893 207.360 C 35.790 207.257,35.587 207.923,35.440 208.840 M55.450 208.450 C 55.117 210.117,55.440 210.440,55.800 208.800 C 55.952 208.109,55.993 207.459,55.891 207.358 C 55.789 207.256,55.591 207.747,55.450 208.450 M132.946 207.733 C 133.086 208.136,133.200 208.541,133.200 208.633 C 133.200 209.007,134.373 208.767,134.638 208.338 C 134.827 208.033,134.746 207.986,134.401 208.199 C 134.072 208.403,133.659 208.241,133.286 207.761 C 132.736 207.055,132.711 207.053,132.946 207.733 M203.800 207.600 C 203.296 207.817,203.222 207.944,203.600 207.944 C 203.930 207.944,204.560 207.789,205.000 207.600 C 205.504 207.383,205.578 207.256,205.200 207.256 C 204.870 207.256,204.240 207.411,203.800 207.600 M96.446 208.067 C 96.421 208.434,96.296 209.064,96.170 209.467 C 95.952 210.162,95.963 210.163,96.397 209.487 C 96.648 209.096,96.773 208.466,96.673 208.087 C 96.511 207.468,96.488 207.466,96.446 208.067 M212.167 210.400 C 212.167 213.010,212.214 213.205,212.523 211.900 C 212.732 211.023,212.732 209.777,212.523 208.900 C 212.214 207.595,212.167 207.790,212.167 210.400 M177.413 209.500 C 179.219 213.843,185.642 219.296,188.800 219.168 C 189.130 219.155,188.760 218.908,187.978 218.620 C 183.507 216.972,180.050 214.022,178.231 210.300 C 176.964 207.708,176.465 207.220,177.413 209.500 M72.200 209.600 C 72.048 210.291,72.007 210.941,72.109 211.042 C 72.211 211.144,72.409 210.653,72.550 209.950 C 72.883 208.283,72.560 207.960,72.200 209.600 M94.600 209.600 C 94.448 210.291,94.407 210.941,94.509 211.042 C 94.611 211.144,94.809 210.653,94.950 209.950 C 95.283 208.283,94.960 207.960,94.600 209.600 M155.280 209.000 C 155.280 209.440,155.424 210.250,155.600 210.800 C 155.854 211.592,155.920 211.633,155.920 211.000 C 155.920 210.560,155.776 209.750,155.600 209.200 C 155.346 208.408,155.280 208.367,155.280 209.000 M36.446 209.267 C 36.421 209.634,36.296 210.264,36.170 210.667 C 35.952 211.362,35.963 211.363,36.397 210.687 C 36.648 210.296,36.773 209.666,36.673 209.287 C 36.511 208.668,36.488 208.666,36.446 209.267 M197.115 209.272 C 197.492 209.421,199.060 209.544,200.600 209.544 C 202.140 209.544,203.708 209.421,204.085 209.272 C 204.462 209.122,202.894 209.000,200.600 209.000 C 198.306 209.000,196.738 209.122,197.115 209.272 M14.468 209.600 C 14.488 210.639,15.118 212.346,15.132 211.400 C 15.138 210.960,14.989 210.240,14.800 209.800 C 14.589 209.310,14.461 209.232,14.468 209.600 M257.850 210.450 C 257.709 211.153,257.669 211.802,257.759 211.892 C 257.850 211.983,258.048 211.491,258.200 210.800 C 258.352 210.109,258.393 209.459,258.291 209.358 C 258.189 209.256,257.991 209.747,257.850 210.450 M236.046 210.600 C 236.011 211.260,235.480 212.829,234.866 214.087 C 234.252 215.345,233.968 216.193,234.235 215.971 C 235.033 215.309,236.478 211.340,236.287 210.335 C 236.138 209.551,236.099 209.594,236.046 210.600 M340.799 210.603 C 340.589 211.154,340.139 212.144,339.799 212.803 C 339.458 213.461,339.269 214.000,339.379 214.000 C 339.609 214.000,340.637 212.080,341.199 210.603 C 341.409 210.051,341.490 209.600,341.380 209.600 C 341.270 209.600,341.009 210.051,340.799 210.603 M78.394 211.589 C 79.395 213.549,81.287 215.738,82.947 216.855 C 83.636 217.319,83.333 216.932,82.273 215.995 C 81.213 215.058,79.800 213.326,79.134 212.146 C 77.727 209.651,77.206 209.259,78.394 211.589 M119.077 211.231 C 119.475 211.908,120.056 212.673,120.368 212.931 C 120.680 213.189,120.432 212.635,119.815 211.700 C 118.520 209.737,118.009 209.412,119.077 211.231 M173.029 211.429 C 172.881 212.015,172.838 212.572,172.932 212.666 C 173.027 212.760,173.224 212.358,173.371 211.771 C 173.519 211.185,173.562 210.628,173.468 210.534 C 173.373 210.440,173.176 210.842,173.029 211.429 M34.291 212.691 C 33.925 213.498,33.707 214.241,33.808 214.341 C 33.908 214.441,34.272 213.846,34.618 213.018 C 35.437 211.059,35.157 210.780,34.291 212.691 M35.400 212.400 C 35.250 212.873,35.217 213.350,35.327 213.460 C 35.437 213.570,35.650 213.273,35.800 212.800 C 35.950 212.327,35.983 211.850,35.873 211.740 C 35.763 211.630,35.550 211.927,35.400 212.400 M108.774 213.836 C 108.018 214.845,106.545 216.225,105.500 216.903 C 103.164 218.417,103.017 218.779,105.246 217.526 C 106.662 216.730,109.210 214.122,110.156 212.500 C 110.796 211.402,110.073 212.101,108.774 213.836 M145.560 214.513 C 144.327 215.881,142.482 217.418,141.460 217.928 C 139.616 218.848,138.953 219.414,140.300 218.917 C 142.297 218.180,145.523 215.422,147.571 212.700 C 148.636 211.285,147.741 212.092,145.560 214.513 M53.791 213.640 C 53.642 214.321,53.672 215.030,53.860 215.215 C 54.047 215.400,54.227 214.842,54.260 213.976 C 54.332 212.081,54.161 211.958,53.791 213.640 M256.695 213.996 C 256.348 214.878,256.149 215.600,256.253 215.600 C 256.523 215.600,257.678 212.745,257.486 212.552 C 257.397 212.464,257.041 213.113,256.695 213.996 M297.259 213.700 C 296.252 215.324,294.229 217.263,292.400 218.359 C 291.630 218.820,291.198 219.198,291.440 219.199 C 292.039 219.201,294.764 217.162,296.048 215.752 C 297.239 214.443,298.599 212.400,298.279 212.400 C 298.161 212.400,297.702 212.985,297.259 213.700 M216.800 212.953 C 216.800 213.382,217.990 215.600,218.221 215.600 C 218.331 215.600,218.123 215.015,217.759 214.300 C 217.017 212.840,216.800 212.536,216.800 212.953 M122.297 215.226 C 123.230 216.215,124.580 217.341,125.297 217.729 C 126.556 218.411,126.566 218.410,125.600 217.719 C 125.050 217.325,123.700 216.198,122.600 215.216 L 120.600 213.429 122.297 215.226 M211.292 214.559 C 211.051 215.086,210.167 216.021,209.327 216.637 C 207.117 218.257,206.836 218.574,208.241 217.866 C 209.525 217.219,212.000 214.664,212.000 213.986 C 212.000 213.346,211.753 213.546,211.292 214.559 M16.574 215.441 C 17.250 216.873,19.627 219.078,21.100 219.638 C 22.742 220.262,22.522 219.808,20.819 219.056 C 19.386 218.424,17.790 216.913,16.494 214.962 C 16.216 214.543,16.252 214.758,16.574 215.441 M35.216 214.520 C 35.186 215.120,36.346 217.057,37.074 217.622 C 37.760 218.155,37.764 218.142,37.150 217.393 C 36.793 216.957,36.215 216.060,35.866 215.400 C 35.517 214.740,35.225 214.344,35.216 214.520 M49.533 216.842 C 48.286 218.135,47.577 219.026,47.958 218.823 C 48.679 218.437,52.000 214.974,52.000 214.609 C 52.000 214.290,51.957 214.329,49.533 216.842 M337.775 215.654 C 337.129 216.343,335.800 217.423,334.822 218.054 C 333.844 218.684,333.232 219.200,333.462 219.200 C 334.046 219.200,336.767 217.151,338.175 215.652 C 338.821 214.963,339.260 214.400,339.150 214.400 C 339.040 214.400,338.421 214.964,337.775 215.654 M31.826 216.713 C 30.415 218.403,30.388 218.475,31.560 217.400 C 32.671 216.382,33.888 214.770,33.514 214.813 C 33.451 214.820,32.692 215.675,31.826 216.713 M170.688 216.739 C 170.116 217.603,168.908 218.661,167.934 219.149 C 166.980 219.628,166.650 219.904,167.200 219.763 C 168.619 219.400,170.477 217.905,171.323 216.446 C 172.338 214.695,171.910 214.892,170.688 216.739 M240.034 216.322 C 240.565 217.049,241.630 218.006,242.400 218.449 C 243.429 219.040,243.535 219.061,242.801 218.527 C 242.251 218.127,241.186 217.170,240.434 216.400 L 239.068 215.000 240.034 216.322 M55.401 217.134 C 56.060 217.868,56.960 218.655,57.400 218.883 C 57.840 219.111,58.020 219.140,57.800 218.948 C 57.580 218.755,56.680 217.968,55.801 217.199 L 54.202 215.800 55.401 217.134 M158.393 217.101 C 158.868 217.816,159.648 218.593,160.128 218.828 L 161.000 219.254 160.129 218.527 C 159.650 218.127,158.869 217.350,158.394 216.800 L 157.531 215.800 158.393 217.101 M219.401 217.150 C 220.591 218.491,223.249 219.992,224.400 219.973 C 224.730 219.967,224.115 219.617,223.032 219.194 C 221.950 218.772,220.421 217.835,219.633 217.113 L 218.202 215.800 219.401 217.150 M254.000 217.674 C 253.010 218.576,252.560 219.124,253.000 218.892 C 253.752 218.494,256.352 215.981,255.975 216.016 C 255.879 216.025,254.990 216.771,254.000 217.674 M302.483 218.400 C 302.470 219.170,302.603 220.610,302.780 221.600 C 303.212 224.031,303.246 221.747,302.818 219.000 C 302.564 217.365,302.503 217.255,302.483 218.400 M28.000 219.220 C 27.010 219.625,26.431 219.966,26.713 219.978 C 27.361 220.006,30.000 218.915,30.000 218.620 C 30.000 218.499,29.955 218.419,29.900 218.441 C 29.845 218.464,28.990 218.814,28.000 219.220 M65.400 219.200 C 64.520 219.607,63.941 219.954,64.113 219.970 C 64.587 220.015,67.200 218.872,67.200 218.620 C 67.200 218.349,67.323 218.310,65.400 219.200 M229.800 219.200 C 228.920 219.607,228.341 219.954,228.513 219.970 C 228.987 220.015,231.600 218.872,231.600 218.620 C 231.600 218.349,231.723 218.310,229.800 219.200 M280.084 222.700 L 280.169 227.000 280.298 222.900 C 280.370 220.645,280.490 218.800,280.565 218.800 C 280.641 218.800,281.349 219.070,282.138 219.400 C 282.928 219.730,283.805 219.992,284.087 219.981 C 284.602 219.962,280.862 218.401,280.300 218.400 C 280.135 218.400,280.038 220.335,280.084 222.700 M323.800 219.222 C 324.680 219.638,325.670 219.975,326.000 219.971 C 326.330 219.966,325.700 219.611,324.600 219.182 C 322.096 218.204,321.692 218.224,323.800 219.222 M89.200 219.600 C 89.750 219.776,90.560 219.920,91.000 219.920 C 91.633 219.920,91.592 219.854,90.800 219.600 C 90.250 219.424,89.440 219.280,89.000 219.280 C 88.367 219.280,88.408 219.346,89.200 219.600 M98.800 219.600 C 98.008 219.854,97.967 219.920,98.600 219.920 C 99.040 219.920,99.850 219.776,100.400 219.600 C 101.192 219.346,101.233 219.280,100.600 219.280 C 100.160 219.280,99.350 219.424,98.800 219.600 M129.400 219.600 C 129.840 219.789,130.560 219.938,131.000 219.932 C 131.643 219.923,131.604 219.857,130.800 219.600 C 129.432 219.162,128.381 219.162,129.400 219.600 M137.000 219.600 C 135.981 220.038,137.032 220.038,138.400 219.600 C 139.204 219.343,139.243 219.277,138.600 219.268 C 138.160 219.262,137.440 219.411,137.000 219.600 M190.400 219.587 C 191.391 219.917,194.287 220.135,193.967 219.854 C 193.875 219.774,192.810 219.606,191.600 219.481 C 190.180 219.334,189.754 219.371,190.400 219.587 M201.400 219.600 C 200.330 219.872,200.308 219.905,201.200 219.905 C 201.750 219.905,202.740 219.768,203.400 219.600 C 204.470 219.328,204.492 219.295,203.600 219.295 C 203.050 219.295,202.060 219.432,201.400 219.600 M250.400 219.600 C 249.576 219.864,249.541 219.926,250.200 219.954 C 250.640 219.973,251.270 219.813,251.600 219.600 C 252.301 219.147,251.814 219.147,250.400 219.600 M289.000 219.600 C 288.496 219.817,288.422 219.944,288.800 219.944 C 289.130 219.944,289.760 219.789,290.200 219.600 C 290.704 219.383,290.778 219.256,290.400 219.256 C 290.070 219.256,289.440 219.411,289.000 219.600 M93.900 220.282 C 94.395 220.378,95.205 220.378,95.700 220.282 C 96.195 220.187,95.790 220.109,94.800 220.109 C 93.810 220.109,93.405 220.187,93.900 220.282 M196.305 220.283 C 196.802 220.379,197.522 220.375,197.905 220.275 C 198.287 220.175,197.880 220.096,197.000 220.101 C 196.120 220.105,195.807 220.187,196.305 220.283 M261.072 223.400 C 261.199 224.500,261.369 225.475,261.451 225.567 C 261.732 225.882,261.520 223.399,261.180 222.400 C 260.951 221.726,260.916 222.051,261.072 223.400 M303.268 224.600 C 303.262 225.040,303.411 225.760,303.600 226.200 C 304.038 227.219,304.038 226.168,303.600 224.800 C 303.343 223.996,303.277 223.957,303.268 224.600 M321.818 226.618 C 321.665 227.639,321.622 228.555,321.722 228.655 C 321.822 228.755,322.029 228.002,322.182 226.982 C 322.335 225.961,322.378 225.045,322.278 224.945 C 322.178 224.845,321.971 225.598,321.818 226.618 M261.844 227.000 C 262.173 228.471,262.402 228.790,262.394 227.767 C 262.391 227.345,262.205 226.730,261.982 226.400 C 261.685 225.962,261.648 226.124,261.844 227.000 M279.429 228.629 C 279.281 229.215,279.238 229.772,279.332 229.866 C 279.427 229.960,279.624 229.558,279.771 228.971 C 279.919 228.385,279.962 227.828,279.868 227.734 C 279.773 227.640,279.576 228.042,279.429 228.629 M304.800 229.753 C 304.800 230.182,305.990 232.400,306.221 232.400 C 306.331 232.400,306.123 231.815,305.759 231.100 C 305.017 229.640,304.800 229.336,304.800 229.753 M263.204 230.640 C 263.197 231.445,265.606 234.415,266.912 235.212 C 268.961 236.461,269.152 236.124,267.123 234.837 C 266.108 234.194,264.825 232.899,264.249 231.937 C 263.676 230.982,263.206 230.398,263.204 230.640 M278.278 231.805 C 277.912 232.572,277.695 233.200,277.796 233.200 C 278.070 233.200,279.284 230.751,279.101 230.568 C 279.014 230.481,278.644 231.038,278.278 231.805 M319.563 232.972 C 319.046 233.727,317.988 234.712,317.211 235.163 C 316.435 235.613,315.998 235.986,316.241 235.991 C 317.083 236.008,319.361 234.190,320.115 232.899 C 321.116 231.186,320.754 231.234,319.563 232.972 M306.974 233.552 C 307.975 234.683,310.371 236.162,310.688 235.846 C 310.823 235.711,310.737 235.600,310.497 235.600 C 310.257 235.600,309.192 234.943,308.131 234.139 C 307.069 233.336,306.548 233.072,306.974 233.552 M276.800 233.937 C 276.800 234.122,276.177 234.609,275.416 235.019 C 274.654 235.429,274.111 235.844,274.208 235.941 C 274.400 236.134,277.600 234.109,277.600 233.794 C 277.600 233.687,277.420 233.600,277.200 233.600 C 276.980 233.600,276.800 233.752,276.800 233.937 M270.307 236.290 C 271.026 236.379,272.106 236.377,272.707 236.286 C 273.308 236.195,272.720 236.122,271.400 236.124 C 270.080 236.126,269.588 236.201,270.307 236.290 M312.307 236.290 C 313.026 236.379,314.106 236.377,314.707 236.286 C 315.308 236.195,314.720 236.122,313.400 236.124 C 312.080 236.126,311.588 236.201,312.307 236.290 " stroke="none" fill="#ed6066" fill-rule="evenodd"></path><path id="path3" d="M23.515 165.128 C 23.138 165.278,24.526 165.400,26.600 165.400 C 28.674 165.400,30.062 165.278,29.685 165.128 C 29.308 164.979,27.920 164.856,26.600 164.856 C 25.280 164.856,23.892 164.979,23.515 165.128 M57.740 165.106 C 57.487 165.268,58.876 165.400,60.826 165.400 C 62.777 165.400,64.064 165.278,63.686 165.128 C 62.752 164.758,58.310 164.742,57.740 165.106 M161.115 165.128 C 160.738 165.278,162.306 165.400,164.600 165.400 C 166.894 165.400,168.462 165.278,168.085 165.128 C 167.708 164.979,166.140 164.856,164.600 164.856 C 163.060 164.856,161.492 164.979,161.115 165.128 M233.708 165.125 C 233.438 165.296,234.428 165.374,235.908 165.296 C 239.767 165.095,240.249 164.899,237.000 164.853 C 235.460 164.830,233.979 164.953,233.708 165.125 M17.926 168.399 C 16.867 169.498,16.000 170.605,16.000 170.859 C 16.000 171.112,16.519 170.603,17.154 169.727 C 17.789 168.850,18.824 167.749,19.454 167.279 C 20.084 166.810,20.432 166.420,20.226 166.413 C 20.021 166.406,18.986 167.299,17.926 168.399 M32.800 166.524 C 32.800 166.617,33.565 167.198,34.500 167.815 C 35.435 168.432,35.989 168.680,35.731 168.368 C 35.234 167.767,32.800 166.236,32.800 166.524 M243.610 166.526 C 244.209 167.174,246.895 168.797,246.418 168.222 C 246.110 167.851,245.305 167.266,244.629 166.923 C 243.953 166.579,243.495 166.401,243.610 166.526 M51.185 168.429 L 49.800 169.658 51.400 168.545 C 52.280 167.933,53.075 167.380,53.167 167.316 C 53.258 167.252,53.162 167.200,52.952 167.200 C 52.742 167.200,51.947 167.753,51.185 168.429 M69.453 169.000 C 70.289 170.100,71.023 171.075,71.086 171.167 C 71.149 171.258,71.200 171.168,71.199 170.967 C 71.198 170.765,70.464 169.790,69.566 168.800 L 67.935 167.000 69.453 169.000 M225.186 170.300 L 223.000 172.600 225.300 170.414 C 226.565 169.211,227.600 168.176,227.600 168.114 C 227.600 167.817,227.218 168.163,225.186 170.300 M38.012 170.617 C 38.995 171.726,40.213 173.166,40.718 173.817 C 41.222 174.468,41.104 174.190,40.456 173.200 C 39.807 172.210,38.589 170.770,37.750 170.000 C 36.336 168.704,36.356 168.749,38.012 170.617 M249.064 171.049 C 250.129 172.395,251.228 173.835,251.506 174.249 C 251.784 174.662,251.752 174.460,251.434 173.800 C 251.116 173.140,250.017 171.700,248.992 170.600 L 247.128 168.600 249.064 171.049 M48.171 170.903 L 47.000 172.197 48.200 171.199 C 48.860 170.649,49.475 170.155,49.567 170.100 C 49.658 170.045,49.645 169.912,49.538 169.804 C 49.430 169.696,48.815 170.191,48.171 170.903 M173.754 172.000 C 173.754 173.785,173.813 173.962,174.110 173.069 C 174.319 172.444,174.319 171.556,174.110 170.931 C 173.813 170.038,173.754 170.215,173.754 172.000 M45.765 173.811 C 45.173 174.587,44.759 175.287,44.844 175.367 C 44.930 175.446,45.493 174.812,46.096 173.956 C 47.465 172.014,47.218 171.906,45.765 173.811 M155.225 173.481 C 155.186 174.237,156.087 176.000,156.513 176.000 C 156.735 176.000,156.715 175.779,156.465 175.478 C 156.227 175.192,155.856 174.517,155.641 173.978 C 155.427 173.440,155.239 173.217,155.225 173.481 M73.073 178.400 C 73.204 179.390,73.376 180.275,73.456 180.367 C 73.757 180.714,73.528 178.164,73.190 177.400 C 72.953 176.866,72.914 177.198,73.073 178.400 M13.853 178.436 C 13.714 179.131,13.623 180.353,13.651 181.150 C 13.685 182.130,13.810 181.763,14.035 180.018 C 14.389 177.283,14.277 176.313,13.853 178.436 M161.515 178.872 C 161.892 179.021,163.280 179.144,164.600 179.144 C 165.920 179.144,167.308 179.021,167.685 178.872 C 168.062 178.722,166.674 178.600,164.600 178.600 C 162.526 178.600,161.138 178.722,161.515 178.872 M44.056 180.800 C 44.056 181.130,44.211 181.760,44.400 182.200 C 44.617 182.704,44.744 182.778,44.744 182.400 C 44.744 182.070,44.589 181.440,44.400 181.000 C 44.183 180.496,44.056 180.422,44.056 180.800 M46.456 181.600 C 46.456 181.930,46.611 182.560,46.800 183.000 C 47.017 183.504,47.144 183.578,47.144 183.200 C 47.144 182.870,46.989 182.240,46.800 181.800 C 46.583 181.296,46.456 181.222,46.456 181.600 M92.713 181.495 C 93.876 181.576,95.676 181.576,96.713 181.493 C 97.751 181.411,96.800 181.345,94.600 181.346 C 92.400 181.347,91.551 181.414,92.713 181.495 M123.091 181.489 C 123.801 181.577,125.061 181.579,125.891 181.492 C 126.721 181.405,126.140 181.333,124.600 181.331 C 123.060 181.329,122.381 181.400,123.091 181.489 M142.300 181.489 C 143.015 181.578,144.185 181.578,144.900 181.489 C 145.615 181.401,145.030 181.328,143.600 181.328 C 142.170 181.328,141.585 181.401,142.300 181.489 M163.700 181.487 C 164.305 181.578,165.295 181.578,165.900 181.487 C 166.505 181.395,166.010 181.320,164.800 181.320 C 163.590 181.320,163.095 181.395,163.700 181.487 M193.113 181.495 C 194.276 181.576,196.076 181.576,197.113 181.493 C 198.151 181.411,197.200 181.345,195.000 181.346 C 192.800 181.347,191.951 181.414,193.113 181.495 M269.300 181.487 C 269.905 181.578,270.895 181.578,271.500 181.487 C 272.105 181.395,271.610 181.320,270.400 181.320 C 269.190 181.320,268.695 181.395,269.300 181.487 M284.291 181.489 C 285.001 181.577,286.261 181.579,287.091 181.492 C 287.921 181.405,287.340 181.333,285.800 181.331 C 284.260 181.329,283.581 181.400,284.291 181.489 M311.300 181.487 C 311.905 181.578,312.895 181.578,313.500 181.487 C 314.105 181.395,313.610 181.320,312.400 181.320 C 311.190 181.320,310.695 181.395,311.300 181.487 M326.291 181.489 C 327.001 181.577,328.261 181.579,329.091 181.492 C 329.921 181.405,329.340 181.333,327.800 181.331 C 326.260 181.329,325.581 181.400,326.291 181.489 M128.864 182.409 C 130.209 183.119,130.931 183.842,132.308 185.857 C 132.738 186.485,132.746 186.445,132.358 185.600 C 131.521 183.773,128.932 181.551,127.720 181.618 C 127.544 181.627,128.059 181.983,128.864 182.409 M188.200 182.000 C 187.696 182.217,187.622 182.344,188.000 182.344 C 188.330 182.344,188.960 182.189,189.400 182.000 C 189.904 181.783,189.978 181.656,189.600 181.656 C 189.270 181.656,188.640 181.811,188.200 182.000 M200.600 182.000 C 201.040 182.189,201.670 182.344,202.000 182.344 C 202.378 182.344,202.304 182.217,201.800 182.000 C 201.360 181.811,200.730 181.656,200.400 181.656 C 200.022 181.656,200.096 181.783,200.600 182.000 M266.400 182.200 C 265.850 182.514,265.580 182.772,265.800 182.772 C 266.020 182.772,266.650 182.514,267.200 182.200 C 267.750 181.886,268.020 181.628,267.800 181.628 C 267.580 181.628,266.950 181.886,266.400 182.200 M308.135 182.424 C 306.939 183.190,305.368 185.102,305.679 185.413 C 305.758 185.492,306.170 185.040,306.593 184.410 C 307.017 183.780,308.002 182.893,308.782 182.441 C 309.562 181.989,310.020 181.617,309.800 181.616 C 309.580 181.615,308.831 181.978,308.135 182.424 M235.582 182.834 C 235.336 183.293,235.223 183.757,235.331 183.864 C 235.439 183.972,235.642 183.698,235.782 183.256 C 235.923 182.813,236.344 182.371,236.719 182.272 C 237.356 182.104,237.356 182.090,236.714 182.046 C 236.337 182.021,235.827 182.375,235.582 182.834 M102.433 182.549 C 102.845 182.917,105.200 184.000,105.200 183.821 C 105.200 183.590,102.982 182.400,102.553 182.400 C 102.396 182.400,102.342 182.467,102.433 182.549 M118.583 183.109 C 118.133 183.489,117.511 184.160,117.200 184.600 C 116.889 185.040,117.302 184.780,118.117 184.022 C 119.457 182.776,119.794 182.383,119.500 182.409 C 119.445 182.414,119.032 182.729,118.583 183.109 M137.178 183.900 L 135.800 185.400 137.300 184.022 C 138.125 183.263,138.800 182.588,138.800 182.522 C 138.800 182.216,138.462 182.504,137.178 183.900 M149.625 183.831 C 150.381 184.728,151.081 185.397,151.180 185.317 C 151.279 185.238,150.660 184.504,149.805 183.687 L 148.250 182.200 149.625 183.831 M158.575 183.700 L 157.400 185.000 158.700 183.825 C 159.912 182.730,160.184 182.400,159.875 182.400 C 159.806 182.400,159.221 182.985,158.575 183.700 M170.425 183.831 C 171.181 184.728,171.881 185.397,171.980 185.317 C 172.079 185.238,171.460 184.504,170.605 183.687 L 169.050 182.200 170.425 183.831 M317.354 183.075 C 317.769 183.576,317.951 184.174,317.781 184.475 C 317.540 184.899,317.587 184.903,318.026 184.496 C 318.479 184.075,318.408 183.842,317.599 183.096 C 316.651 182.220,316.646 182.219,317.354 183.075 M73.767 190.400 C 73.767 194.690,73.826 196.445,73.898 194.300 C 73.970 192.155,73.970 188.645,73.898 186.500 C 73.826 184.355,73.767 186.110,73.767 190.400 M204.833 183.321 C 204.925 183.388,205.540 183.758,206.200 184.145 L 207.400 184.847 206.456 184.024 C 205.936 183.571,205.321 183.200,205.089 183.200 C 204.857 183.200,204.742 183.254,204.833 183.321 M320.493 184.300 C 319.457 185.796,319.121 186.400,319.323 186.400 C 319.417 186.400,319.970 185.680,320.553 184.800 C 321.736 183.012,321.684 182.579,320.493 184.300 M45.099 186.200 C 45.216 187.740,45.377 189.075,45.456 189.167 C 45.734 189.488,45.517 185.389,45.203 184.400 C 45.019 183.819,44.975 184.573,45.099 186.200 M81.534 185.500 C 79.878 186.989,77.597 190.169,77.604 190.978 C 77.606 191.210,78.136 190.479,78.781 189.354 C 79.426 188.229,80.800 186.564,81.834 185.654 C 82.867 184.744,83.598 184.000,83.457 184.000 C 83.317 184.000,82.452 184.675,81.534 185.500 M105.633 184.132 C 105.725 184.204,106.700 185.052,107.800 186.015 L 109.800 187.766 108.017 185.883 C 107.036 184.847,106.061 184.000,105.850 184.000 C 105.639 184.000,105.542 184.059,105.633 184.132 M181.761 185.501 C 180.859 186.325,179.959 187.277,179.761 187.616 C 179.562 187.954,179.850 187.745,180.400 187.150 C 180.950 186.555,181.940 185.609,182.600 185.047 C 183.260 184.485,183.710 184.020,183.600 184.014 C 183.490 184.007,182.662 184.677,181.761 185.501 M338.188 185.800 C 340.077 188.317,340.321 188.541,339.362 186.876 C 338.943 186.148,338.170 185.158,337.644 184.676 C 337.081 184.160,337.305 184.622,338.188 185.800 M234.600 185.600 C 234.448 186.291,234.407 186.941,234.509 187.042 C 234.611 187.144,234.809 186.653,234.950 185.950 C 235.283 184.283,234.960 183.960,234.600 185.600 M47.200 187.447 C 47.200 189.956,47.155 190.082,46.342 189.869 C 45.730 189.709,45.608 189.768,45.915 190.075 C 46.950 191.110,47.600 190.082,47.600 187.413 C 47.600 185.976,47.510 184.800,47.400 184.800 C 47.290 184.800,47.200 185.991,47.200 187.447 M209.220 186.621 C 210.199 187.733,211.081 188.581,211.181 188.507 C 211.280 188.433,210.479 187.523,209.401 186.486 L 207.440 184.600 209.220 186.621 M217.049 185.815 C 216.912 186.173,216.815 186.766,216.834 187.133 C 216.853 187.500,217.027 187.269,217.221 186.620 C 217.598 185.358,217.465 184.733,217.049 185.815 M236.520 189.200 C 236.520 190.410,236.595 190.905,236.687 190.300 C 236.778 189.695,236.778 188.705,236.687 188.100 C 236.595 187.495,236.520 187.990,236.520 189.200 M256.856 187.600 C 256.856 187.930,257.011 188.560,257.200 189.000 C 257.417 189.504,257.544 189.578,257.544 189.200 C 257.544 188.870,257.389 188.240,257.200 187.800 C 256.983 187.296,256.856 187.222,256.856 187.600 M94.487 188.800 C 94.483 189.350,94.624 190.250,94.800 190.800 C 95.231 192.144,95.231 190.692,94.800 189.000 C 94.526 187.922,94.494 187.902,94.487 188.800 M115.449 188.615 C 115.312 188.973,115.221 189.746,115.246 190.333 C 115.280 191.132,115.370 190.998,115.604 189.800 C 115.935 188.100,115.862 187.540,115.449 188.615 M173.044 189.000 C 173.373 190.471,173.602 190.790,173.594 189.767 C 173.591 189.345,173.405 188.730,173.182 188.400 C 172.885 187.962,172.848 188.124,173.044 189.000 M273.753 189.043 C 273.423 190.361,275.090 191.549,275.757 190.470 C 275.869 190.289,275.564 190.154,275.080 190.170 C 274.362 190.195,274.214 189.997,274.275 189.100 C 274.370 187.710,274.096 187.680,273.753 189.043 M152.282 190.200 C 152.409 191.300,152.577 192.275,152.656 192.367 C 152.955 192.714,152.728 189.764,152.397 189.000 C 152.174 188.485,152.133 188.913,152.282 190.200 M216.249 189.015 C 216.112 189.373,216.018 190.056,216.041 190.533 C 216.067 191.081,216.203 190.886,216.410 190.003 C 216.760 188.516,216.665 187.933,216.249 189.015 M317.818 189.544 C 317.677 189.987,317.256 190.429,316.881 190.528 C 316.244 190.696,316.244 190.710,316.886 190.754 C 317.550 190.799,318.665 189.332,318.269 188.936 C 318.161 188.828,317.958 189.102,317.818 189.544 M155.400 190.800 C 155.246 191.710,155.204 192.538,155.307 192.640 C 155.410 192.743,155.613 192.077,155.760 191.160 C 155.907 190.243,155.948 189.415,155.853 189.320 C 155.758 189.224,155.554 189.890,155.400 190.800 M261.800 190.400 C 261.648 191.091,261.607 191.741,261.709 191.842 C 261.811 191.944,262.009 191.453,262.150 190.750 C 262.483 189.083,262.160 188.760,261.800 190.400 M194.954 190.177 C 194.832 190.494,194.817 191.079,194.920 191.477 C 195.039 191.938,195.124 191.791,195.154 191.071 C 195.220 189.466,196.464 189.812,197.077 191.605 C 197.340 192.372,197.565 192.693,197.577 192.319 C 197.643 190.340,195.547 188.629,194.954 190.177 M96.868 190.400 C 96.888 191.439,97.518 193.146,97.532 192.200 C 97.538 191.760,97.389 191.040,97.200 190.600 C 96.989 190.110,96.861 190.032,96.868 190.400 M131.400 192.000 C 131.246 192.910,131.204 193.738,131.307 193.840 C 131.410 193.943,131.613 193.277,131.760 192.360 C 131.907 191.443,131.948 190.615,131.853 190.520 C 131.758 190.424,131.554 191.090,131.400 192.000 M234.468 191.400 C 234.462 191.840,234.611 192.560,234.800 193.000 C 235.238 194.019,235.238 192.968,234.800 191.600 C 234.543 190.796,234.477 190.757,234.468 191.400 M303.456 192.084 C 303.321 192.588,303.228 193.450,303.249 194.000 C 303.272 194.589,303.431 194.271,303.636 193.225 C 304.003 191.352,303.873 190.527,303.456 192.084 M173.799 199.003 C 173.799 203.472,173.905 205.612,174.056 204.200 C 174.398 201.005,174.406 195.431,174.070 193.203 C 173.922 192.214,173.800 194.824,173.799 199.003 M299.458 192.800 C 299.775 194.525,300.002 194.851,299.994 193.567 C 299.991 193.035,299.811 192.330,299.594 192.000 C 299.318 191.578,299.277 191.815,299.458 192.800 M95.506 195.600 C 95.619 197.470,95.776 199.075,95.856 199.167 C 96.122 199.474,95.909 194.614,95.603 193.400 C 95.436 192.739,95.392 193.728,95.506 195.600 M195.324 195.000 C 195.326 196.320,195.401 196.812,195.490 196.093 C 195.579 195.374,195.577 194.294,195.486 193.693 C 195.395 193.092,195.322 193.680,195.324 195.000 M215.453 194.036 C 215.314 194.731,215.224 196.133,215.254 197.150 C 215.297 198.609,215.375 198.366,215.622 196.001 C 215.953 192.831,215.875 191.925,215.453 194.036 M112.244 194.200 C 112.573 195.671,112.802 195.990,112.794 194.967 C 112.791 194.545,112.605 193.930,112.382 193.600 C 112.085 193.162,112.048 193.324,112.244 194.200 M133.055 195.055 C 132.913 196.086,132.874 197.008,132.969 197.102 C 133.063 197.196,133.265 196.439,133.418 195.418 C 133.571 194.398,133.610 193.476,133.504 193.371 C 133.398 193.265,133.196 194.023,133.055 195.055 M341.881 195.200 C 342.006 196.410,342.174 197.475,342.254 197.567 C 342.535 197.887,342.317 194.991,341.987 194.000 C 341.771 193.354,341.734 193.780,341.881 195.200 M34.956 194.171 C 34.835 194.485,34.804 195.160,34.886 195.671 C 34.995 196.354,35.088 196.204,35.237 195.100 C 35.447 193.547,35.336 193.181,34.956 194.171 M261.059 195.088 C 260.921 195.919,260.831 197.410,260.858 198.400 C 260.892 199.684,261.002 199.288,261.241 197.021 C 261.593 193.678,261.484 192.516,261.059 195.088 M76.256 194.884 C 76.121 195.388,76.032 196.520,76.058 197.400 C 76.097 198.720,76.159 198.580,76.413 196.600 C 76.737 194.078,76.670 193.341,76.256 194.884 M97.751 199.200 C 97.754 203.405,97.816 204.025,98.027 202.000 C 98.177 200.570,98.174 198.140,98.022 196.600 C 97.797 194.316,97.746 194.795,97.751 199.200 M324.075 194.248 C 324.447 194.358,324.836 194.843,324.941 195.325 C 325.100 196.058,325.120 196.039,325.066 195.204 C 325.021 194.528,324.743 194.182,324.200 194.127 C 323.624 194.069,323.589 194.102,324.075 194.248 M36.856 194.800 C 36.856 195.130,37.011 195.760,37.200 196.200 C 37.417 196.704,37.544 196.778,37.544 196.400 C 37.544 196.070,37.389 195.440,37.200 195.000 C 36.983 194.496,36.856 194.422,36.856 194.800 M54.643 194.730 C 54.531 194.911,54.825 195.046,55.295 195.030 C 55.878 195.009,56.241 195.318,56.435 196.000 C 56.675 196.841,56.727 196.870,56.760 196.180 C 56.824 194.866,55.233 193.776,54.643 194.730 M282.650 195.650 C 282.317 197.317,282.640 197.640,283.000 196.000 C 283.152 195.309,283.193 194.659,283.091 194.558 C 282.989 194.456,282.791 194.947,282.650 195.650 M176.256 195.684 C 176.121 196.188,176.033 197.410,176.060 198.400 C 176.103 199.974,176.147 199.873,176.409 197.600 C 176.724 194.866,176.667 194.150,176.256 195.684 M280.256 196.484 C 280.121 196.988,280.028 197.850,280.049 198.400 C 280.072 198.989,280.231 198.671,280.436 197.625 C 280.803 195.752,280.673 194.927,280.256 196.484 M300.144 200.400 C 300.144 203.874,300.214 204.637,300.372 202.900 C 300.497 201.525,300.497 199.275,300.372 197.900 C 300.214 196.163,300.144 196.926,300.144 200.400 M152.460 197.250 C 152.427 197.828,152.311 198.908,152.201 199.650 L 152.003 201.000 152.424 199.657 C 152.655 198.919,152.772 197.839,152.682 197.257 L 152.520 196.200 152.460 197.250 M324.256 197.284 C 324.121 197.788,324.031 198.830,324.055 199.600 C 324.089 200.669,324.175 200.480,324.418 198.802 C 324.753 196.492,324.672 195.733,324.256 197.284 M258.548 200.800 C 258.548 203.110,258.614 204.055,258.695 202.900 C 258.776 201.745,258.776 199.855,258.695 198.700 C 258.614 197.545,258.548 198.490,258.548 200.800 M54.440 198.433 C 54.462 199.185,54.630 200.250,54.813 200.800 C 55.029 201.446,55.066 201.020,54.919 199.600 C 54.659 197.083,54.381 196.407,54.440 198.433 M197.029 198.229 C 196.881 198.815,196.838 199.372,196.932 199.466 C 197.027 199.560,197.224 199.158,197.371 198.571 C 197.519 197.985,197.562 197.428,197.468 197.334 C 197.373 197.240,197.176 197.642,197.029 198.229 M302.660 200.861 C 302.341 205.350,302.386 215.015,302.740 218.000 C 302.883 219.210,303.000 215.025,303.000 208.700 C 303.000 202.375,302.982 197.200,302.960 197.200 C 302.938 197.200,302.803 198.848,302.660 200.861 M35.400 203.200 C 35.400 206.365,35.514 208.425,35.653 207.777 C 35.792 207.130,35.905 205.070,35.905 203.200 C 35.905 201.330,35.792 199.270,35.653 198.623 C 35.514 197.975,35.400 200.035,35.400 203.200 M133.320 199.600 C 133.320 200.810,133.395 201.305,133.487 200.700 C 133.578 200.095,133.578 199.105,133.487 198.500 C 133.395 197.895,133.320 198.390,133.320 199.600 M322.109 199.200 C 322.109 200.190,322.187 200.595,322.282 200.100 C 322.378 199.605,322.378 198.795,322.282 198.300 C 322.187 197.805,322.109 198.210,322.109 199.200 M194.961 199.197 C 194.986 199.843,195.249 200.215,195.708 200.256 C 196.157 200.296,196.202 200.251,195.832 200.135 C 195.511 200.033,195.175 199.557,195.086 199.075 C 194.951 198.354,194.930 198.376,194.961 199.197 M212.446 198.467 C 212.421 198.834,212.296 199.464,212.170 199.867 C 211.952 200.562,211.963 200.563,212.397 199.887 C 212.648 199.496,212.773 198.866,212.673 198.487 C 212.511 197.868,212.488 197.866,212.446 198.467 M115.280 199.000 C 115.280 199.440,115.424 200.250,115.600 200.800 C 115.854 201.592,115.920 201.633,115.920 201.000 C 115.920 200.560,115.776 199.750,115.600 199.200 C 115.346 198.408,115.280 198.367,115.280 199.000 M282.137 201.400 C 282.139 203.160,282.209 203.830,282.293 202.889 C 282.378 201.949,282.377 200.509,282.291 199.689 C 282.205 198.870,282.136 199.640,282.137 201.400 M37.742 202.200 C 37.741 204.180,37.808 205.040,37.892 204.112 C 37.976 203.184,37.977 201.564,37.895 200.512 C 37.812 199.460,37.743 200.220,37.742 202.200 M56.901 200.600 C 56.905 201.480,56.987 201.793,57.083 201.295 C 57.179 200.798,57.175 200.078,57.075 199.695 C 56.975 199.313,56.896 199.720,56.901 200.600 M13.623 201.233 C 13.636 202.205,13.801 203.720,13.990 204.600 C 14.237 205.749,14.271 205.298,14.113 203.000 C 13.870 199.479,13.587 198.457,13.623 201.233 M76.040 201.433 C 76.062 202.515,76.222 203.850,76.397 204.400 C 76.581 204.981,76.625 204.227,76.501 202.600 C 76.251 199.304,75.983 198.627,76.040 201.433 M95.670 201.850 C 95.631 202.758,95.511 204.108,95.401 204.850 L 95.203 206.200 95.623 204.862 C 95.853 204.127,95.974 202.777,95.891 201.862 L 95.740 200.200 95.670 201.850 M176.028 202.433 C 176.044 203.405,176.206 204.560,176.390 205.000 C 176.592 205.483,176.638 204.849,176.507 203.400 C 176.245 200.510,175.989 199.993,176.028 202.433 M215.247 203.033 C 215.273 204.335,215.431 205.940,215.597 206.600 C 215.764 207.261,215.808 206.272,215.694 204.400 C 215.455 200.440,215.179 199.596,215.247 203.033 M73.015 203.415 C 72.861 204.654,72.817 205.750,72.919 205.852 C 73.020 205.954,73.230 205.023,73.385 203.785 C 73.539 202.546,73.583 201.450,73.481 201.348 C 73.380 201.246,73.170 202.177,73.015 203.415 M131.287 202.000 C 131.283 202.550,131.424 203.450,131.600 204.000 C 132.031 205.344,132.031 203.892,131.600 202.200 C 131.326 201.122,131.294 201.102,131.287 202.000 M321.858 202.400 C 322.175 204.125,322.402 204.451,322.394 203.167 C 322.391 202.635,322.211 201.930,321.994 201.600 C 321.718 201.178,321.677 201.415,321.858 202.400 M151.429 202.629 C 151.281 203.215,151.238 203.772,151.332 203.866 C 151.427 203.960,151.624 203.558,151.771 202.971 C 151.919 202.385,151.962 201.828,151.868 201.734 C 151.773 201.640,151.576 202.042,151.429 202.629 M54.514 203.800 C 54.517 204.900,54.595 205.303,54.687 204.695 C 54.779 204.086,54.777 203.186,54.682 202.695 C 54.587 202.203,54.511 202.700,54.514 203.800 M237.593 204.519 L 237.785 206.600 237.918 204.846 C 237.991 203.881,237.905 202.944,237.726 202.765 C 237.547 202.585,237.487 203.375,237.593 204.519 M342.062 203.600 C 342.022 204.370,341.896 205.450,341.783 206.000 L 341.577 207.000 342.008 206.014 C 342.244 205.471,342.370 204.391,342.286 203.614 L 342.134 202.200 342.062 203.600 M112.449 203.800 C 112.416 204.240,112.296 205.050,112.183 205.600 L 111.977 206.600 112.406 205.619 C 112.642 205.079,112.761 204.269,112.672 203.819 C 112.513 203.021,112.507 203.021,112.449 203.800 M133.606 203.833 C 133.609 204.255,133.795 204.870,134.018 205.200 C 134.315 205.638,134.352 205.476,134.156 204.600 C 133.827 203.129,133.598 202.810,133.606 203.833 M235.442 205.300 C 235.194 207.728,235.305 212.824,235.600 212.531 C 235.783 212.350,235.916 203.200,235.736 203.200 C 235.693 203.200,235.561 204.145,235.442 205.300 M208.469 205.031 C 207.517 205.784,206.902 206.400,207.102 206.400 C 207.303 206.400,208.172 205.777,209.033 205.017 C 211.037 203.247,210.714 203.255,208.469 205.031 M280.028 204.433 C 280.044 204.965,280.219 205.760,280.419 206.200 C 280.671 206.758,280.707 206.515,280.538 205.400 C 280.255 203.543,279.987 203.036,280.028 204.433 M189.774 204.443 C 189.594 204.734,189.764 204.802,190.270 204.641 C 190.760 204.486,191.534 204.761,192.398 205.398 C 193.752 206.397,194.000 206.530,194.000 206.254 C 194.000 205.349,190.216 203.727,189.774 204.443 M155.240 206.433 C 155.262 207.185,155.430 208.250,155.613 208.800 C 155.829 209.446,155.866 209.020,155.719 207.600 C 155.459 205.083,155.181 204.407,155.240 206.433 M56.200 206.800 C 56.048 207.491,56.007 208.141,56.109 208.242 C 56.211 208.344,56.409 207.853,56.550 207.150 C 56.883 205.483,56.560 205.160,56.200 206.800 M282.641 206.651 C 282.934 208.182,282.137 208.876,281.339 207.785 C 281.043 207.379,280.800 207.239,280.800 207.475 C 280.800 207.710,281.070 208.126,281.400 208.400 C 282.605 209.400,283.742 207.445,282.794 206.000 C 282.512 205.570,282.469 205.754,282.641 206.651 M97.000 207.200 C 96.848 207.891,96.807 208.541,96.909 208.642 C 97.011 208.744,97.209 208.253,97.350 207.550 C 97.683 205.883,97.360 205.560,97.000 207.200 M299.450 207.250 C 299.309 207.953,299.269 208.602,299.359 208.692 C 299.450 208.783,299.648 208.291,299.800 207.600 C 299.952 206.909,299.993 206.259,299.891 206.158 C 299.789 206.056,299.591 206.547,299.450 207.250 M134.512 207.400 C 134.587 208.417,134.460 208.595,133.687 208.567 C 133.122 208.546,132.916 208.676,133.147 208.907 C 133.627 209.387,135.209 208.892,135.172 208.273 C 135.156 208.013,134.982 207.440,134.784 207.000 C 134.483 206.330,134.439 206.395,134.512 207.400 M37.022 208.222 C 36.872 209.025,36.828 209.762,36.926 209.860 C 37.024 209.957,37.227 209.381,37.378 208.578 C 37.528 207.775,37.572 207.038,37.474 206.940 C 37.376 206.843,37.173 207.419,37.022 208.222 M53.850 208.050 C 53.517 209.717,53.840 210.040,54.200 208.400 C 54.352 207.709,54.393 207.059,54.291 206.958 C 54.189 206.856,53.991 207.347,53.850 208.050 M72.250 208.050 C 71.917 209.717,72.240 210.040,72.600 208.400 C 72.752 207.709,72.793 207.059,72.691 206.958 C 72.589 206.856,72.391 207.347,72.250 208.050 M14.480 207.800 C 14.480 208.240,14.624 209.050,14.800 209.600 C 15.054 210.392,15.120 210.433,15.120 209.800 C 15.120 209.360,14.976 208.550,14.800 208.000 C 14.546 207.208,14.480 207.167,14.480 207.800 M117.609 207.344 C 117.591 208.039,120.114 212.377,120.944 213.078 C 121.795 213.796,121.796 213.795,121.083 212.950 C 120.689 212.482,119.748 210.952,118.992 209.550 C 118.236 208.147,117.614 207.155,117.609 207.344 M201.000 207.600 L 199.400 207.886 200.800 207.903 C 201.570 207.913,202.650 207.776,203.200 207.600 C 204.485 207.188,203.299 207.188,201.000 207.600 M173.050 209.650 C 172.717 211.317,173.040 211.640,173.400 210.000 C 173.552 209.309,173.593 208.659,173.491 208.558 C 173.389 208.456,173.191 208.947,173.050 209.650 M237.628 209.433 C 237.644 210.075,237.816 210.960,238.010 211.400 C 238.247 211.934,238.286 211.602,238.127 210.400 C 237.846 208.280,237.588 207.780,237.628 209.433 M260.501 209.800 C 260.505 210.680,260.587 210.993,260.683 210.495 C 260.779 209.998,260.775 209.278,260.675 208.895 C 260.575 208.513,260.496 208.920,260.501 209.800 M77.600 208.953 C 77.600 209.382,78.790 211.600,79.021 211.600 C 79.131 211.600,78.923 211.015,78.559 210.300 C 77.817 208.840,77.600 208.536,77.600 208.953 M195.400 209.200 C 195.840 209.389,196.470 209.544,196.800 209.544 C 197.178 209.544,197.104 209.417,196.600 209.200 C 196.160 209.011,195.530 208.856,195.200 208.856 C 194.822 208.856,194.896 208.983,195.400 209.200 M204.600 209.200 C 204.096 209.417,204.022 209.544,204.400 209.544 C 204.730 209.544,205.360 209.389,205.800 209.200 C 206.304 208.983,206.378 208.856,206.000 208.856 C 205.670 208.856,205.040 209.011,204.600 209.200 M216.056 209.200 C 216.056 209.530,216.211 210.160,216.400 210.600 C 216.617 211.104,216.744 211.178,216.744 210.800 C 216.744 210.470,216.589 209.840,216.400 209.400 C 216.183 208.896,216.056 208.822,216.056 209.200 M96.122 210.400 C 95.584 211.825,94.912 211.943,94.412 210.700 C 94.168 210.091,94.043 210.010,94.025 210.451 C 93.973 211.785,95.213 212.271,96.046 211.243 C 96.461 210.730,96.800 210.061,96.800 209.756 C 96.800 208.910,96.620 209.081,96.122 210.400 M199.705 209.887 C 200.314 209.979,201.214 209.977,201.705 209.882 C 202.197 209.787,201.700 209.711,200.600 209.714 C 199.500 209.717,199.097 209.795,199.705 209.887 M147.881 211.039 C 147.486 211.568,147.308 212.000,147.485 212.000 C 147.834 212.000,148.938 210.401,148.728 210.200 C 148.657 210.133,148.277 210.511,147.881 211.039 M156.006 211.033 C 156.009 211.455,156.195 212.070,156.418 212.400 C 156.715 212.838,156.752 212.676,156.556 211.800 C 156.227 210.329,155.998 210.010,156.006 211.033 M110.000 211.461 C 110.000 211.678,109.356 212.608,108.569 213.528 C 107.782 214.448,107.287 215.194,107.469 215.188 C 107.980 215.169,110.544 211.611,110.255 211.322 C 110.115 211.182,110.000 211.244,110.000 211.461 M297.487 212.587 C 296.460 214.740,294.141 217.058,291.896 218.177 C 290.767 218.740,290.113 219.200,290.443 219.200 C 292.538 219.200,299.347 212.413,298.301 211.368 C 298.214 211.281,297.848 211.830,297.487 212.587 M51.887 213.387 C 50.972 215.304,48.625 217.810,47.183 218.407 C 46.518 218.682,46.053 218.987,46.150 219.083 C 46.518 219.451,48.719 217.986,50.107 216.450 C 51.555 214.847,52.998 212.465,52.701 212.168 C 52.614 212.081,52.248 212.630,51.887 213.387 M35.442 213.434 C 35.308 213.783,35.349 214.337,35.533 214.666 C 35.768 215.086,35.867 214.899,35.867 214.031 C 35.867 212.637,35.790 212.529,35.442 213.434 M234.591 214.028 C 234.436 214.517,233.565 215.744,232.655 216.756 C 231.745 217.767,231.358 218.326,231.795 217.998 C 233.414 216.780,235.516 213.782,235.066 213.333 C 234.960 213.227,234.746 213.539,234.591 214.028 M54.046 214.251 C 54.021 214.719,54.315 215.349,54.700 215.651 C 55.309 216.128,55.340 216.122,54.943 215.600 C 54.692 215.270,54.398 214.640,54.289 214.200 C 54.103 213.440,54.090 213.443,54.046 214.251 M144.000 215.681 C 142.790 216.806,142.340 217.355,143.000 216.900 C 144.139 216.115,146.746 213.580,146.375 213.618 C 146.279 213.628,145.210 214.557,144.000 215.681 M32.764 214.900 C 32.509 215.395,31.918 216.249,31.450 216.797 L 30.600 217.794 31.541 216.998 C 32.433 216.243,33.842 214.000,33.424 214.000 C 33.316 214.000,33.019 214.405,32.764 214.900 M122.716 215.252 C 123.926 216.557,127.200 218.735,127.200 218.236 C 127.200 218.117,126.649 217.736,125.976 217.388 C 125.303 217.040,123.998 216.097,123.076 215.294 L 121.400 213.834 122.716 215.252 M80.944 214.709 C 81.260 215.221,83.600 216.953,83.600 216.675 C 83.600 216.576,82.939 215.991,82.132 215.375 C 81.324 214.759,80.789 214.459,80.944 214.709 M170.895 215.823 C 170.403 216.574,170.000 217.323,170.000 217.487 C 170.000 217.651,170.466 217.100,171.036 216.262 C 171.605 215.424,172.008 214.675,171.931 214.598 C 171.854 214.520,171.388 215.072,170.895 215.823 M239.513 215.000 C 239.745 215.440,240.618 216.430,241.453 217.200 C 242.833 218.472,241.657 216.958,239.278 214.400 C 239.175 214.290,239.281 214.560,239.513 215.000 M182.727 215.800 C 183.381 216.350,184.038 216.800,184.188 216.800 C 184.339 216.800,183.927 216.350,183.273 215.800 C 182.619 215.250,181.962 214.800,181.812 214.800 C 181.661 214.800,182.073 215.250,182.727 215.800 M337.549 215.467 C 337.247 215.833,336.298 216.643,335.440 217.267 C 334.582 217.890,334.070 218.400,334.301 218.400 C 334.753 218.400,338.770 214.843,338.349 214.816 C 338.211 214.807,337.851 215.100,337.549 215.467 M159.687 217.805 C 160.504 218.660,161.238 219.279,161.317 219.180 C 161.397 219.081,160.728 218.381,159.831 217.625 L 158.200 216.250 159.687 217.805 M254.233 217.163 C 253.853 217.583,253.009 218.148,252.358 218.417 C 251.707 218.687,251.253 218.987,251.350 219.083 C 251.631 219.364,253.732 218.160,254.563 217.241 C 254.982 216.778,255.234 216.400,255.124 216.400 C 255.014 216.400,254.613 216.744,254.233 217.163 M38.087 218.100 C 38.706 218.705,39.435 219.195,39.706 219.188 C 39.978 219.181,39.840 218.977,39.400 218.733 C 38.960 218.490,38.231 218.000,37.781 217.645 C 37.330 217.290,37.468 217.495,38.087 218.100 M260.840 219.233 C 260.862 220.205,261.025 221.450,261.202 222.000 C 261.395 222.600,261.437 221.960,261.306 220.400 C 261.051 217.362,260.782 216.689,260.840 219.233 M57.600 218.600 C 58.150 218.914,58.780 219.172,59.000 219.172 C 59.220 219.172,58.950 218.914,58.400 218.600 C 57.850 218.286,57.220 218.028,57.000 218.028 C 56.780 218.028,57.050 218.286,57.600 218.600 M321.769 222.300 C 321.740 226.254,321.765 226.407,322.087 224.200 C 322.280 222.880,322.356 221.124,322.257 220.299 C 322.123 219.188,322.248 218.697,322.738 218.411 C 323.322 218.070,323.306 218.023,322.600 218.013 C 321.851 218.002,321.798 218.274,321.769 222.300 M189.000 218.800 C 189.440 218.989,190.070 219.144,190.400 219.144 C 190.778 219.144,190.704 219.017,190.200 218.800 C 189.760 218.611,189.130 218.456,188.800 218.456 C 188.422 218.456,188.496 218.583,189.000 218.800 M203.800 218.800 C 203.296 219.017,203.222 219.144,203.600 219.144 C 203.930 219.144,204.560 218.989,205.000 218.800 C 205.504 218.583,205.578 218.456,205.200 218.456 C 204.870 218.456,204.240 218.611,203.800 218.800 M22.715 219.672 C 23.092 219.821,23.940 219.944,24.600 219.944 C 25.260 219.944,26.108 219.821,26.485 219.672 C 26.862 219.522,26.014 219.400,24.600 219.400 C 23.186 219.400,22.338 219.522,22.715 219.672 M41.735 219.725 C 42.628 219.941,43.776 219.951,44.482 219.748 C 45.472 219.464,45.191 219.396,42.947 219.377 C 40.446 219.356,40.338 219.387,41.735 219.725 M62.200 219.600 L 60.600 219.886 62.000 219.915 C 62.770 219.931,63.760 219.789,64.200 219.600 C 65.143 219.195,64.462 219.195,62.200 219.600 M91.023 219.653 C 91.670 219.792,93.280 219.905,94.600 219.905 C 95.920 219.905,97.530 219.792,98.177 219.653 C 98.825 219.514,97.215 219.400,94.600 219.400 C 91.985 219.400,90.375 219.514,91.023 219.653 M131.200 219.598 C 132.188 219.916,135.889 220.135,135.567 219.856 C 135.475 219.777,134.230 219.614,132.800 219.494 C 131.240 219.363,130.600 219.405,131.200 219.598 M162.715 219.672 C 163.092 219.821,163.940 219.944,164.600 219.944 C 165.260 219.944,166.108 219.821,166.485 219.672 C 166.862 219.522,166.014 219.400,164.600 219.400 C 163.186 219.400,162.338 219.522,162.715 219.672 M194.491 219.739 C 196.255 219.941,198.573 219.945,199.891 219.747 C 201.848 219.453,201.376 219.399,196.800 219.392 C 191.622 219.384,191.527 219.399,194.491 219.739 M225.281 219.713 C 226.339 219.919,227.606 219.931,228.178 219.740 C 228.932 219.488,228.445 219.393,226.298 219.373 C 223.470 219.347,223.445 219.355,225.281 219.713 M246.362 219.702 C 247.072 219.886,248.406 219.881,249.326 219.690 C 250.838 219.377,250.712 219.345,248.036 219.356 C 245.670 219.365,245.332 219.435,246.362 219.702 M284.317 219.672 C 285.186 220.018,287.504 220.003,288.798 219.643 C 289.384 219.480,288.524 219.372,286.714 219.383 C 285.020 219.392,283.941 219.522,284.317 219.672 M326.317 219.672 C 327.186 220.018,329.504 220.003,330.798 219.643 C 331.384 219.480,330.524 219.372,328.714 219.383 C 327.020 219.392,325.941 219.522,326.317 219.672 M303.287 222.400 C 303.283 222.950,303.424 223.850,303.600 224.400 C 304.031 225.744,304.031 224.292,303.600 222.600 C 303.326 221.522,303.294 221.502,303.287 222.400 M261.668 224.600 C 261.662 225.040,261.811 225.760,262.000 226.200 C 262.438 227.219,262.438 226.168,262.000 224.800 C 261.743 223.996,261.677 223.957,261.668 224.600 M279.455 226.655 C 279.313 227.686,279.274 228.608,279.369 228.702 C 279.463 228.796,279.665 228.039,279.818 227.018 C 279.971 225.998,280.010 225.076,279.904 224.971 C 279.798 224.865,279.596 225.623,279.455 226.655 M321.246 228.067 C 321.221 228.434,321.096 229.064,320.970 229.467 C 320.752 230.162,320.763 230.163,321.197 229.487 C 321.448 229.096,321.573 228.466,321.473 228.087 C 321.311 227.468,321.288 227.466,321.246 228.067 M320.025 231.540 C 319.357 233.153,317.583 234.759,315.745 235.414 C 314.895 235.717,314.524 235.973,314.920 235.982 C 316.850 236.030,321.646 231.513,320.686 230.553 C 320.588 230.455,320.290 230.899,320.025 231.540 M264.000 231.338 C 264.000 231.918,265.779 234.025,266.780 234.630 L 267.800 235.247 266.823 234.398 C 266.286 233.930,265.431 232.984,264.923 232.296 C 264.416 231.608,264.000 231.177,264.000 231.338 M276.094 234.012 C 275.375 234.665,274.937 235.200,275.119 235.200 C 275.301 235.200,275.968 234.660,276.600 234.000 C 278.070 232.465,277.786 232.472,276.094 234.012 M308.800 234.576 C 308.800 234.943,311.144 236.001,311.880 235.966 C 312.359 235.943,312.257 235.827,311.577 235.621 C 311.014 235.450,310.159 235.099,309.677 234.841 C 309.194 234.583,308.800 234.464,308.800 234.576 M268.400 235.582 C 268.730 235.805,269.345 235.991,269.767 235.994 C 270.790 236.002,270.471 235.773,269.000 235.444 C 268.124 235.248,267.962 235.285,268.400 235.582 M273.000 235.600 L 271.800 235.905 272.876 235.953 C 273.468 235.979,274.064 235.820,274.200 235.600 C 274.336 235.380,274.392 235.221,274.324 235.247 C 274.256 235.273,273.660 235.432,273.000 235.600 " stroke="none" fill="#f48484" fill-rule="evenodd"></path><path id="path4" d="M224.975 170.100 L 223.800 171.400 225.100 170.225 C 225.815 169.579,226.400 168.994,226.400 168.925 C 226.400 168.616,226.070 168.888,224.975 170.100 M93.700 181.087 C 94.305 181.178,95.295 181.178,95.900 181.087 C 96.505 180.995,96.010 180.920,94.800 180.920 C 93.590 180.920,93.095 180.995,93.700 181.087 M194.100 181.076 C 194.485 181.176,195.115 181.176,195.500 181.076 C 195.885 180.975,195.570 180.893,194.800 180.893 C 194.030 180.893,193.715 180.975,194.100 181.076 M13.309 187.200 C 13.309 188.190,13.387 188.595,13.482 188.100 C 13.578 187.605,13.578 186.795,13.482 186.300 C 13.387 185.805,13.309 186.210,13.309 187.200 M74.128 190.000 C 74.128 191.430,74.201 192.015,74.289 191.300 C 74.378 190.585,74.378 189.415,74.289 188.700 C 74.201 187.985,74.128 188.570,74.128 190.000 M13.334 193.200 C 13.334 194.850,13.405 195.525,13.491 194.700 C 13.578 193.875,13.578 192.525,13.491 191.700 C 13.405 190.875,13.334 191.550,13.334 193.200 M114.909 194.400 C 114.909 195.390,114.987 195.795,115.082 195.300 C 115.178 194.805,115.178 193.995,115.082 193.500 C 114.987 193.005,114.909 193.410,114.909 194.400 M154.893 196.000 C 154.893 196.770,154.975 197.085,155.076 196.700 C 155.176 196.315,155.176 195.685,155.076 195.300 C 154.975 194.915,154.893 195.230,154.893 196.000 M132.909 198.800 C 132.909 199.790,132.987 200.195,133.082 199.700 C 133.178 199.205,133.178 198.395,133.082 197.900 C 132.987 197.405,132.909 197.810,132.909 198.800 M154.909 200.400 C 154.909 201.390,154.987 201.795,155.082 201.300 C 155.178 200.805,155.178 199.995,155.082 199.500 C 154.987 199.005,154.909 199.410,154.909 200.400 M260.524 206.200 C 260.526 207.520,260.601 208.012,260.690 207.293 C 260.779 206.574,260.777 205.494,260.686 204.893 C 260.595 204.292,260.522 204.880,260.524 206.200 M260.509 212.800 C 260.509 213.790,260.587 214.195,260.682 213.700 C 260.778 213.205,260.778 212.395,260.682 211.900 C 260.587 211.405,260.509 211.810,260.509 212.800 " stroke="none" fill="#f47c84" fill-rule="evenodd"></path></g></svg>